<svg xmlns="http://www.w3.org/2000/svg" xmlns:xlink="http://www.w3.org/1999/xlink" width="202" zoomAndPan="magnify" viewBox="0 0 151.5 30.000001" height="40" preserveAspectRatio="xMidYMid meet" version="1.0"><defs><g/></defs><g fill="#007dfc" fill-opacity="1"><g transform="translate(7.377075, 15.256646)"><g><path d="M 4.4375 -1.828125 C 4.519531 -1.828125 4.585938 -1.734375 4.640625 -1.546875 C 4.691406 -1.367188 4.71875 -1.160156 4.71875 -0.921875 C 4.71875 -0.671875 4.691406 -0.453125 4.640625 -0.265625 C 4.585938 -0.0859375 4.519531 0 4.4375 0 L 3.734375 0 C 3.441406 0 3.253906 -0.203125 3.171875 -0.609375 L 2.984375 -1.40625 C 2.890625 -1.332031 2.796875 -1.125 2.703125 -0.78125 C 2.640625 -0.613281 2.582031 -0.488281 2.53125 -0.40625 C 2.476562 -0.320312 2.40625 -0.289062 2.3125 -0.3125 L 0.390625 -0.765625 C 0.347656 -0.773438 0.3125 -0.789062 0.28125 -0.8125 C 0.257812 -0.84375 0.25 -0.878906 0.25 -0.921875 C 0.25 -0.941406 0.25 -0.957031 0.25 -0.96875 L 0.78125 -2.828125 C 0.789062 -2.847656 0.8125 -2.867188 0.84375 -2.890625 L 2.5625 -3.953125 L 2.421875 -4.59375 C 2.421875 -4.601562 2.421875 -4.613281 2.421875 -4.625 L 3 -5.453125 C 3.007812 -5.472656 3.03125 -5.484375 3.0625 -5.484375 C 3.101562 -5.484375 3.125 -5.460938 3.125 -5.421875 L 3.578125 -2.5 C 3.617188 -2.269531 3.664062 -2.097656 3.71875 -1.984375 C 3.769531 -1.878906 3.859375 -1.828125 3.984375 -1.828125 Z M 2.671875 -3.28125 C 2.617188 -3.28125 2.570312 -3.25 2.53125 -3.1875 C 2.5 -3.125 2.457031 -3.039062 2.40625 -2.9375 C 2.351562 -2.8125 2.3125 -2.726562 2.28125 -2.6875 C 2.238281 -2.632812 2.164062 -2.570312 2.0625 -2.5 C 1.988281 -2.445312 1.929688 -2.398438 1.890625 -2.359375 C 1.847656 -2.328125 1.816406 -2.28125 1.796875 -2.21875 L 2.875 -2.03125 Z M 0.453125 -6.09375 C 0.410156 -6.125 0.390625 -6.164062 0.390625 -6.21875 C 0.390625 -6.25 0.398438 -6.273438 0.421875 -6.296875 L 0.875 -6.921875 C 0.90625 -6.960938 0.945312 -6.984375 1 -6.984375 C 1.03125 -6.984375 1.0625 -6.972656 1.09375 -6.953125 L 1.765625 -6.4375 L 2.125 -6.921875 C 2.15625 -6.960938 2.191406 -6.984375 2.234375 -6.984375 C 2.273438 -6.984375 2.304688 -6.972656 2.328125 -6.953125 L 3.078125 -6.390625 C 3.117188 -6.359375 3.140625 -6.320312 3.140625 -6.28125 C 3.140625 -6.25 3.128906 -6.21875 3.109375 -6.1875 L 2.6875 -5.5625 C 2.65625 -5.519531 2.613281 -5.5 2.5625 -5.5 C 2.539062 -5.5 2.507812 -5.507812 2.46875 -5.53125 L 1.765625 -6.046875 L 1.4375 -5.5625 C 1.40625 -5.519531 1.363281 -5.5 1.3125 -5.5 C 1.28125 -5.5 1.253906 -5.507812 1.234375 -5.53125 Z M 0.453125 -6.09375 "/></g></g></g><g fill="#007dfc" fill-opacity="1"><g transform="translate(11.777864, 15.256646)"><g><path d="M -0.046875 0 C -0.128906 0 -0.191406 -0.0859375 -0.234375 -0.265625 C -0.285156 -0.453125 -0.3125 -0.671875 -0.3125 -0.921875 C -0.3125 -1.160156 -0.285156 -1.367188 -0.234375 -1.546875 C -0.191406 -1.734375 -0.128906 -1.828125 -0.046875 -1.828125 L 2.796875 -1.828125 C 2.796875 -2.117188 2.769531 -2.351562 2.71875 -2.53125 C 2.5625 -2.382812 2.394531 -2.273438 2.21875 -2.203125 C 2.039062 -2.128906 1.863281 -2.09375 1.6875 -2.09375 C 1.5 -2.09375 1.328125 -2.132812 1.171875 -2.21875 C 1.023438 -2.300781 0.90625 -2.421875 0.8125 -2.578125 C 0.71875 -2.734375 0.671875 -2.925781 0.671875 -3.15625 C 0.671875 -3.28125 0.6875 -3.414062 0.71875 -3.5625 C 0.78125 -3.820312 0.890625 -4.085938 1.046875 -4.359375 C 1.210938 -4.640625 1.40625 -4.867188 1.625 -5.046875 C 1.84375 -5.222656 2.054688 -5.3125 2.265625 -5.3125 C 2.515625 -5.3125 2.734375 -5.191406 2.921875 -4.953125 C 3.109375 -4.722656 3.253906 -4.375 3.359375 -3.90625 C 3.460938 -3.445312 3.515625 -2.882812 3.515625 -2.21875 C 3.515625 -1.570312 3.46875 -0.875 3.375 -0.125 C 3.375 -0.0820312 3.359375 -0.0507812 3.328125 -0.03125 C 3.304688 -0.0078125 3.273438 0 3.234375 0 Z M 1.40625 -3.765625 C 1.445312 -3.660156 1.519531 -3.582031 1.625 -3.53125 C 1.726562 -3.488281 1.851562 -3.46875 2 -3.46875 C 2.101562 -3.46875 2.203125 -3.476562 2.296875 -3.5 C 2.335938 -3.507812 2.351562 -3.539062 2.34375 -3.59375 C 2.3125 -3.75 2.253906 -3.863281 2.171875 -3.9375 C 2.097656 -4.019531 2.003906 -4.0625 1.890625 -4.0625 C 1.742188 -4.0625 1.59375 -3.992188 1.4375 -3.859375 C 1.40625 -3.835938 1.394531 -3.804688 1.40625 -3.765625 Z M 0.640625 -6.3125 C 0.597656 -6.34375 0.578125 -6.382812 0.578125 -6.4375 C 0.578125 -6.46875 0.585938 -6.492188 0.609375 -6.515625 L 1.0625 -7.140625 C 1.09375 -7.179688 1.132812 -7.203125 1.1875 -7.203125 C 1.21875 -7.203125 1.25 -7.191406 1.28125 -7.171875 L 1.953125 -6.65625 L 2.3125 -7.140625 C 2.34375 -7.179688 2.378906 -7.203125 2.421875 -7.203125 C 2.460938 -7.203125 2.492188 -7.191406 2.515625 -7.171875 L 3.265625 -6.609375 C 3.304688 -6.578125 3.328125 -6.539062 3.328125 -6.5 C 3.328125 -6.46875 3.316406 -6.4375 3.296875 -6.40625 L 2.875 -5.78125 C 2.84375 -5.738281 2.800781 -5.71875 2.75 -5.71875 C 2.726562 -5.71875 2.695312 -5.726562 2.65625 -5.75 L 1.953125 -6.265625 L 1.625 -5.78125 C 1.59375 -5.738281 1.550781 -5.71875 1.5 -5.71875 C 1.46875 -5.71875 1.441406 -5.726562 1.421875 -5.75 Z M 0.640625 -6.3125 "/></g></g></g><g fill="#007dfc" fill-opacity="1"><g transform="translate(15.536672, 15.256646)"><g><path d="M 1.75 -3.359375 C 1.695312 -3.390625 1.675781 -3.429688 1.6875 -3.484375 L 2.03125 -4.890625 C 2.039062 -4.929688 2.066406 -4.953125 2.109375 -4.953125 C 2.117188 -4.953125 2.132812 -4.945312 2.15625 -4.9375 C 2.664062 -4.644531 3.035156 -4.269531 3.265625 -3.8125 C 3.503906 -3.351562 3.625 -2.8125 3.625 -2.1875 C 3.625 -1.59375 3.523438 -0.894531 3.328125 -0.09375 C 3.304688 -0.03125 3.269531 0 3.21875 0 L 0.34375 0 C 0.28125 0 0.25 -0.0351562 0.25 -0.109375 L 0.265625 -1.78125 C 0.265625 -1.8125 0.269531 -1.832031 0.28125 -1.84375 C 0.300781 -1.863281 0.328125 -1.875 0.359375 -1.875 L 2.90625 -1.875 C 2.875 -2.414062 2.488281 -2.910156 1.75 -3.359375 Z M 1.75 -3.359375 "/></g></g></g><g fill="#007dfc" fill-opacity="1"><g transform="translate(19.40819, 15.256646)"><g><path d="M -0.46875 0.828125 C -0.476562 0.804688 -0.484375 0.789062 -0.484375 0.78125 C -0.484375 0.757812 -0.476562 0.742188 -0.46875 0.734375 C -0.457031 0.734375 -0.445312 0.738281 -0.4375 0.75 C -0.21875 0.9375 0.0234375 1.03125 0.296875 1.03125 C 0.566406 1.03125 0.820312 0.953125 1.0625 0.796875 C 1.3125 0.640625 1.519531 0.425781 1.6875 0.15625 C 1.863281 -0.101562 1.972656 -0.382812 2.015625 -0.6875 C 1.941406 -0.925781 1.832031 -1.164062 1.6875 -1.40625 C 1.550781 -1.644531 1.363281 -1.925781 1.125 -2.25 C 1.101562 -2.28125 1.09375 -2.304688 1.09375 -2.328125 C 1.09375 -2.335938 1.097656 -2.359375 1.109375 -2.390625 L 1.734375 -3.5 C 1.753906 -3.53125 1.773438 -3.546875 1.796875 -3.546875 C 1.828125 -3.546875 1.851562 -3.523438 1.875 -3.484375 C 2.070312 -2.960938 2.234375 -2.582031 2.359375 -2.34375 C 2.484375 -2.101562 2.585938 -1.957031 2.671875 -1.90625 C 2.765625 -1.851562 2.875 -1.828125 3 -1.828125 L 3.21875 -1.828125 C 3.300781 -1.828125 3.363281 -1.734375 3.40625 -1.546875 C 3.445312 -1.367188 3.46875 -1.160156 3.46875 -0.921875 C 3.46875 -0.660156 3.445312 -0.441406 3.40625 -0.265625 C 3.363281 -0.0859375 3.300781 0 3.21875 0 L 2.53125 0 C 2.46875 0.582031 2.332031 1.0625 2.125 1.4375 C 1.925781 1.820312 1.65625 2.015625 1.3125 2.015625 C 1 2.015625 0.703125 1.90625 0.421875 1.6875 C 0.140625 1.476562 -0.15625 1.191406 -0.46875 0.828125 Z M -0.46875 0.828125 "/></g></g></g><g fill="#007dfc" fill-opacity="1"><g transform="translate(22.564212, 15.256646)"><g><path d="M -0.03125 0 C -0.125 0 -0.191406 -0.0859375 -0.234375 -0.265625 C -0.285156 -0.441406 -0.3125 -0.660156 -0.3125 -0.921875 C -0.3125 -1.160156 -0.285156 -1.367188 -0.234375 -1.546875 C -0.191406 -1.734375 -0.125 -1.828125 -0.03125 -1.828125 L 1.65625 -1.828125 C 1.46875 -2.191406 1.175781 -2.421875 0.78125 -2.515625 C 0.757812 -2.515625 0.738281 -2.519531 0.71875 -2.53125 C 0.707031 -2.550781 0.703125 -2.578125 0.703125 -2.609375 C 0.703125 -2.617188 0.703125 -2.628906 0.703125 -2.640625 L 1.0625 -3.734375 C 1.0625 -3.753906 1.070312 -3.773438 1.09375 -3.796875 C 1.28125 -3.921875 1.484375 -4.015625 1.703125 -4.078125 C 1.929688 -4.148438 2.160156 -4.1875 2.390625 -4.1875 C 2.628906 -4.1875 2.84375 -4.148438 3.03125 -4.078125 C 3.226562 -4.003906 3.382812 -3.894531 3.5 -3.75 C 3.613281 -3.613281 3.671875 -3.453125 3.671875 -3.265625 C 3.671875 -3.222656 3.664062 -3.160156 3.65625 -3.078125 L 3.578125 -2.484375 C 3.546875 -2.273438 3.46875 -2.035156 3.34375 -1.765625 C 3.539062 -1.804688 3.707031 -1.828125 3.84375 -1.828125 C 3.988281 -1.828125 4.070312 -1.828125 4.09375 -1.828125 L 4.375 -1.828125 C 4.457031 -1.828125 4.523438 -1.734375 4.578125 -1.546875 C 4.628906 -1.367188 4.65625 -1.160156 4.65625 -0.921875 C 4.65625 -0.660156 4.628906 -0.441406 4.578125 -0.265625 C 4.523438 -0.0859375 4.457031 0 4.375 0 L 4.046875 0 C 3.679688 0 3.375 -0.0546875 3.125 -0.171875 C 2.882812 -0.285156 2.671875 -0.445312 2.484375 -0.65625 C 2.253906 -0.445312 2.015625 -0.285156 1.765625 -0.171875 C 1.515625 -0.0546875 1.257812 0 1 0 Z M 2.515625 -4.796875 C 2.484375 -4.753906 2.441406 -4.734375 2.390625 -4.734375 C 2.367188 -4.734375 2.335938 -4.742188 2.296875 -4.765625 L 1.53125 -5.328125 C 1.488281 -5.359375 1.46875 -5.398438 1.46875 -5.453125 C 1.46875 -5.484375 1.476562 -5.507812 1.5 -5.53125 L 1.953125 -6.15625 C 1.984375 -6.195312 2.023438 -6.21875 2.078125 -6.21875 C 2.109375 -6.21875 2.140625 -6.207031 2.171875 -6.1875 L 2.90625 -5.625 C 2.945312 -5.59375 2.96875 -5.554688 2.96875 -5.515625 C 2.96875 -5.484375 2.957031 -5.453125 2.9375 -5.421875 Z M 2.515625 -4.796875 "/></g></g></g><g fill="#007dfc" fill-opacity="1"><g transform="translate(26.906192, 15.256646)"><g><path d="M -0.03125 0 C -0.125 0 -0.191406 -0.0859375 -0.234375 -0.265625 C -0.285156 -0.453125 -0.3125 -0.671875 -0.3125 -0.921875 C -0.3125 -1.160156 -0.285156 -1.367188 -0.234375 -1.546875 C -0.191406 -1.734375 -0.125 -1.828125 -0.03125 -1.828125 L 1.296875 -1.828125 C 1.347656 -1.828125 1.375 -1.851562 1.375 -1.90625 L 1.09375 -4.203125 C 1.070312 -4.378906 1.035156 -4.515625 0.984375 -4.609375 C 0.929688 -4.710938 0.84375 -4.800781 0.71875 -4.875 C 0.695312 -4.882812 0.6875 -4.90625 0.6875 -4.9375 L 0.703125 -4.96875 L 1.28125 -6.078125 C 1.289062 -6.097656 1.304688 -6.109375 1.328125 -6.109375 C 1.347656 -6.109375 1.363281 -6.097656 1.375 -6.078125 C 1.488281 -5.867188 1.648438 -5.6875 1.859375 -5.53125 C 2.078125 -5.375 2.304688 -5.273438 2.546875 -5.234375 C 2.597656 -5.222656 2.613281 -5.195312 2.59375 -5.15625 L 2.1875 -4.328125 C 2.164062 -4.285156 2.132812 -4.269531 2.09375 -4.28125 L 2 -4.3125 C 1.988281 -4.3125 1.976562 -4.3125 1.96875 -4.3125 C 1.9375 -4.3125 1.921875 -4.289062 1.921875 -4.25 C 1.921875 -4.03125 1.9375 -3.617188 1.96875 -3.015625 C 2.007812 -2.410156 2.046875 -2.023438 2.078125 -1.859375 L 2.078125 -1.84375 C 2.078125 -1.820312 2.070312 -1.800781 2.0625 -1.78125 L 1.578125 -0.0625 C 1.554688 -0.0195312 1.523438 0 1.484375 0 Z M -0.03125 0 "/></g></g></g><g fill="#007dfc" fill-opacity="1"><g transform="translate(29.753479, 15.256646)"><g><path d="M 0.578125 0.328125 C 0.566406 0.335938 0.554688 0.34375 0.546875 0.34375 C 0.523438 0.34375 0.515625 0.328125 0.515625 0.296875 L 0.25 -5.0625 C 0.25 -5.082031 0.253906 -5.101562 0.265625 -5.125 L 1.15625 -6.125 C 1.164062 -6.132812 1.175781 -6.140625 1.1875 -6.140625 C 1.207031 -6.140625 1.21875 -6.128906 1.21875 -6.109375 L 1.359375 -2.09375 C 1.359375 -1.59375 1.300781 -1.148438 1.1875 -0.765625 C 1.070312 -0.378906 0.867188 -0.015625 0.578125 0.328125 Z M 0.578125 0.328125 "/></g></g></g><g fill="#007dfc" fill-opacity="1"><g transform="translate(31.355999, 15.256646)"><g/></g></g><g fill="#007dfc" fill-opacity="1"><g transform="translate(32.238117, 15.256646)"><g><path d="M 3.5 -2.96875 L 3.5 -1.828125 L 0.453125 -1.828125 L 0.453125 -2.96875 Z M 3.5 -2.96875 "/></g></g></g><g fill="#007dfc" fill-opacity="1"><g transform="translate(36.197846, 15.256646)"><g/></g></g><g fill="#007dfc" fill-opacity="1"><g transform="translate(37.079964, 15.256646)"><g><path d="M 0.25 -1.53125 C 0.269531 -1.789062 0.382812 -2.082031 0.59375 -2.40625 C 0.8125 -2.738281 1.066406 -3.015625 1.359375 -3.234375 C 1.660156 -3.460938 1.9375 -3.578125 2.1875 -3.578125 C 2.238281 -3.578125 2.289062 -3.578125 2.34375 -3.578125 C 2.488281 -3.535156 2.617188 -3.460938 2.734375 -3.359375 C 2.847656 -3.253906 2.921875 -3.101562 2.953125 -2.90625 L 2.953125 -2.875 C 2.953125 -2.851562 2.945312 -2.84375 2.9375 -2.84375 L 2.453125 -2 C 2.441406 -1.976562 2.429688 -1.96875 2.421875 -1.96875 C 2.410156 -1.96875 2.398438 -1.976562 2.390625 -2 C 2.304688 -2.144531 2.207031 -2.25 2.09375 -2.3125 C 1.988281 -2.382812 1.863281 -2.421875 1.71875 -2.421875 C 1.539062 -2.421875 1.316406 -2.367188 1.046875 -2.265625 C 1.035156 -2.265625 1.023438 -2.257812 1.015625 -2.25 C 1.015625 -2.238281 1.015625 -2.226562 1.015625 -2.21875 C 1.160156 -1.945312 1.429688 -1.722656 1.828125 -1.546875 C 2.222656 -1.378906 2.78125 -1.28125 3.5 -1.25 C 3.507812 -1.25 3.519531 -1.238281 3.53125 -1.21875 C 3.550781 -1.207031 3.5625 -1.191406 3.5625 -1.171875 C 3.5625 -1.160156 3.554688 -1.144531 3.546875 -1.125 L 3 -0.015625 C 3 -0.00390625 2.992188 0 2.984375 0 C 2.984375 0.0078125 2.976562 0.015625 2.96875 0.015625 C 2.582031 0.015625 2.265625 0.0195312 2.015625 0.03125 C 1.765625 0.0507812 1.503906 0.101562 1.234375 0.1875 C 0.972656 0.269531 0.71875 0.398438 0.46875 0.578125 C 0.445312 0.597656 0.425781 0.609375 0.40625 0.609375 C 0.382812 0.609375 0.367188 0.597656 0.359375 0.578125 C 0.347656 0.566406 0.34375 0.554688 0.34375 0.546875 C 0.34375 0.523438 0.347656 0.503906 0.359375 0.484375 C 0.523438 0.0546875 0.757812 -0.285156 1.0625 -0.546875 C 0.769531 -0.703125 0.554688 -0.863281 0.421875 -1.03125 C 0.285156 -1.195312 0.226562 -1.363281 0.25 -1.53125 Z M 0.25 -1.53125 "/></g></g></g><g fill="#007dfc" fill-opacity="1"><g transform="translate(40.882873, 15.256646)"><g><path d="M 1.375 -1.875 C 1.375 -1.863281 1.378906 -1.851562 1.390625 -1.84375 C 1.398438 -1.832031 1.410156 -1.828125 1.421875 -1.828125 L 2.078125 -1.828125 C 2.160156 -1.828125 2.222656 -1.734375 2.265625 -1.546875 C 2.316406 -1.367188 2.34375 -1.160156 2.34375 -0.921875 C 2.34375 -0.671875 2.316406 -0.453125 2.265625 -0.265625 C 2.222656 -0.0859375 2.160156 0 2.078125 0 L 0.546875 0 C 0.535156 0 0.523438 -0.00390625 0.515625 -0.015625 C 0.503906 -0.0234375 0.5 -0.0351562 0.5 -0.046875 L 0.25 -5.09375 C 0.25 -5.09375 0.25 -5.101562 0.25 -5.125 L 1.09375 -6.0625 C 1.101562 -6.082031 1.125 -6.09375 1.15625 -6.09375 C 1.164062 -6.09375 1.175781 -6.082031 1.1875 -6.0625 C 1.207031 -6.050781 1.21875 -6.035156 1.21875 -6.015625 Z M 1.375 -1.875 "/></g></g></g><g fill="#007dfc" fill-opacity="1"><g transform="translate(42.91665, 15.256646)"><g><path d="M -0.046875 0 C -0.128906 0 -0.191406 -0.0859375 -0.234375 -0.265625 C -0.285156 -0.453125 -0.3125 -0.671875 -0.3125 -0.921875 C -0.3125 -1.160156 -0.285156 -1.367188 -0.234375 -1.546875 C -0.191406 -1.734375 -0.128906 -1.828125 -0.046875 -1.828125 L 1.234375 -1.828125 L 1.140625 -3.375 C 1.140625 -3.375 1.144531 -3.382812 1.15625 -3.40625 L 2 -4.34375 C 2.007812 -4.363281 2.023438 -4.375 2.046875 -4.375 C 2.066406 -4.375 2.082031 -4.363281 2.09375 -4.34375 C 2.101562 -4.332031 2.113281 -4.316406 2.125 -4.296875 L 2.203125 -1.875 C 2.203125 -1.863281 2.207031 -1.851562 2.21875 -1.84375 C 2.226562 -1.832031 2.242188 -1.828125 2.265625 -1.828125 L 3.359375 -1.828125 C 3.453125 -1.828125 3.519531 -1.734375 3.5625 -1.546875 C 3.613281 -1.367188 3.640625 -1.160156 3.640625 -0.921875 C 3.640625 -0.671875 3.613281 -0.453125 3.5625 -0.265625 C 3.519531 -0.0859375 3.453125 0 3.359375 0 L 2.625 0 C 2.507812 0 2.398438 -0.0390625 2.296875 -0.125 C 2.203125 -0.207031 2.132812 -0.335938 2.09375 -0.515625 L 2.0625 -0.125 C 2.050781 -0.0820312 2.03125 -0.0507812 2 -0.03125 C 1.976562 -0.0078125 1.953125 0 1.921875 0 Z M 0.34375 1.390625 C 0.300781 1.359375 0.28125 1.316406 0.28125 1.265625 C 0.28125 1.234375 0.289062 1.207031 0.3125 1.1875 L 0.765625 0.5625 C 0.796875 0.519531 0.835938 0.5 0.890625 0.5 C 0.921875 0.5 0.953125 0.507812 0.984375 0.53125 L 1.65625 1.046875 L 2.015625 0.5625 C 2.046875 0.519531 2.082031 0.5 2.125 0.5 C 2.164062 0.5 2.195312 0.507812 2.21875 0.53125 L 2.96875 1.09375 C 3.007812 1.125 3.03125 1.160156 3.03125 1.203125 C 3.03125 1.234375 3.019531 1.265625 3 1.296875 L 2.578125 1.921875 C 2.546875 1.960938 2.503906 1.984375 2.453125 1.984375 C 2.429688 1.984375 2.398438 1.972656 2.359375 1.953125 L 1.65625 1.4375 L 1.328125 1.921875 C 1.296875 1.960938 1.253906 1.984375 1.203125 1.984375 C 1.171875 1.984375 1.144531 1.972656 1.125 1.953125 Z M 0.34375 1.390625 "/></g></g></g><g fill="#007dfc" fill-opacity="1"><g transform="translate(46.239295, 15.256646)"><g><path d="M 4.875 -3.40625 C 4.894531 -3.40625 4.910156 -3.394531 4.921875 -3.375 C 4.929688 -3.363281 4.9375 -3.351562 4.9375 -3.34375 L 4.703125 -2.109375 C 4.703125 -2.097656 4.691406 -2.085938 4.671875 -2.078125 C 4.660156 -2.078125 4.648438 -2.078125 4.640625 -2.078125 C 4.492188 -2.117188 4.351562 -2.140625 4.21875 -2.140625 C 3.894531 -2.140625 3.582031 -2.023438 3.28125 -1.796875 C 2.988281 -1.566406 2.675781 -1.234375 2.34375 -0.796875 C 2.144531 -0.546875 1.96875 -0.347656 1.8125 -0.203125 C 1.65625 -0.0664062 1.503906 0 1.359375 0 L -0.046875 0 C -0.128906 0 -0.191406 -0.0859375 -0.234375 -0.265625 C -0.285156 -0.453125 -0.3125 -0.671875 -0.3125 -0.921875 C -0.3125 -1.160156 -0.285156 -1.367188 -0.234375 -1.546875 C -0.191406 -1.734375 -0.128906 -1.828125 -0.046875 -1.828125 L 1.890625 -1.828125 C 1.992188 -1.828125 2.101562 -1.859375 2.21875 -1.921875 C 2.332031 -1.984375 2.4375 -2.054688 2.53125 -2.140625 C 2.625 -2.222656 2.691406 -2.304688 2.734375 -2.390625 C 2.734375 -2.390625 2.734375 -2.394531 2.734375 -2.40625 C 2.734375 -2.425781 2.722656 -2.441406 2.703125 -2.453125 C 2.328125 -2.628906 1.960938 -2.71875 1.609375 -2.71875 C 1.253906 -2.71875 0.96875 -2.625 0.75 -2.4375 C 0.726562 -2.425781 0.710938 -2.421875 0.703125 -2.421875 C 0.679688 -2.421875 0.664062 -2.425781 0.65625 -2.4375 C 0.644531 -2.445312 0.640625 -2.460938 0.640625 -2.484375 C 0.722656 -3.054688 0.863281 -3.53125 1.0625 -3.90625 C 1.269531 -4.28125 1.554688 -4.472656 1.921875 -4.484375 C 2.085938 -4.484375 2.25 -4.445312 2.40625 -4.375 C 2.570312 -4.3125 2.796875 -4.203125 3.078125 -4.046875 L 3.328125 -3.90625 C 3.941406 -3.5625 4.457031 -3.394531 4.875 -3.40625 Z M 4.875 -3.40625 "/></g></g></g><g fill="#007dfc" fill-opacity="1"><g transform="translate(51.419293, 15.256646)"><g><path d="M 0.765625 -5.921875 C 0.773438 -5.941406 0.789062 -5.957031 0.8125 -5.96875 C 0.84375 -5.988281 0.867188 -5.988281 0.890625 -5.96875 C 1.421875 -5.675781 1.890625 -5.316406 2.296875 -4.890625 C 2.710938 -4.460938 3.050781 -3.988281 3.3125 -3.46875 C 3.394531 -3.664062 3.4375 -3.878906 3.4375 -4.109375 C 3.4375 -4.410156 3.363281 -4.722656 3.21875 -5.046875 C 3.207031 -5.054688 3.203125 -5.066406 3.203125 -5.078125 C 3.203125 -5.085938 3.207031 -5.101562 3.21875 -5.125 L 3.6875 -6.046875 C 3.695312 -6.066406 3.710938 -6.078125 3.734375 -6.078125 C 3.765625 -6.078125 3.789062 -6.0625 3.8125 -6.03125 C 4.039062 -5.601562 4.359375 -5.335938 4.765625 -5.234375 C 4.785156 -5.234375 4.796875 -5.222656 4.796875 -5.203125 C 4.804688 -5.191406 4.8125 -5.175781 4.8125 -5.15625 L 4.390625 -4.296875 C 4.378906 -4.285156 4.367188 -4.273438 4.359375 -4.265625 C 4.347656 -4.265625 4.335938 -4.269531 4.328125 -4.28125 L 4.125 -4.34375 C 4.050781 -3.976562 3.972656 -3.664062 3.890625 -3.40625 C 3.816406 -3.15625 3.726562 -2.941406 3.625 -2.765625 C 3.863281 -2.097656 3.984375 -1.398438 3.984375 -0.671875 C 3.984375 -0.441406 3.972656 -0.25 3.953125 -0.09375 C 3.953125 -0.0625 3.941406 -0.0351562 3.921875 -0.015625 C 3.898438 -0.00390625 3.878906 0 3.859375 0 L 0.9375 0 C 0.90625 0 0.878906 -0.00390625 0.859375 -0.015625 C 0.847656 -0.0351562 0.835938 -0.0625 0.828125 -0.09375 L 0.671875 -1.734375 C 0.671875 -1.765625 0.675781 -1.789062 0.6875 -1.8125 C 0.707031 -1.832031 0.734375 -1.84375 0.765625 -1.84375 C 1.015625 -1.863281 1.320312 -1.945312 1.6875 -2.09375 C 2.050781 -2.238281 2.394531 -2.445312 2.71875 -2.71875 C 2.570312 -2.90625 2.335938 -3.15625 2.015625 -3.46875 L 1.84375 -3.234375 C 1.820312 -3.203125 1.796875 -3.1875 1.765625 -3.1875 C 1.734375 -3.1875 1.707031 -3.203125 1.6875 -3.234375 L 0.28125 -4.5625 C 0.257812 -4.582031 0.25 -4.609375 0.25 -4.640625 L 0.25 -4.671875 Z M 3.171875 -1.828125 C 3.148438 -1.929688 3.113281 -2.046875 3.0625 -2.171875 C 2.875 -2.054688 2.640625 -1.941406 2.359375 -1.828125 Z M -0.09375 -7.453125 C -0.0820312 -7.597656 -0.0195312 -7.757812 0.09375 -7.9375 C 0.21875 -8.125 0.363281 -8.28125 0.53125 -8.40625 C 0.695312 -8.539062 0.847656 -8.609375 0.984375 -8.609375 C 1.078125 -8.609375 1.171875 -8.570312 1.265625 -8.5 C 1.367188 -8.4375 1.421875 -8.34375 1.421875 -8.21875 C 1.421875 -8.195312 1.414062 -8.1875 1.40625 -8.1875 L 1.140625 -7.71875 C 1.128906 -7.695312 1.117188 -7.695312 1.109375 -7.71875 C 1.023438 -7.875 0.898438 -7.953125 0.734375 -7.953125 C 0.640625 -7.953125 0.515625 -7.921875 0.359375 -7.859375 C 0.335938 -7.859375 0.328125 -7.851562 0.328125 -7.84375 C 0.492188 -7.507812 0.957031 -7.328125 1.71875 -7.296875 C 1.738281 -7.296875 1.75 -7.285156 1.75 -7.265625 C 1.757812 -7.253906 1.757812 -7.238281 1.75 -7.21875 L 1.4375 -6.59375 C 1.4375 -6.59375 1.429688 -6.59375 1.421875 -6.59375 C 1.210938 -6.59375 1.035156 -6.582031 0.890625 -6.5625 C 0.753906 -6.550781 0.609375 -6.523438 0.453125 -6.484375 C 0.304688 -6.441406 0.164062 -6.367188 0.03125 -6.265625 C 0.0195312 -6.253906 0.0078125 -6.25 0 -6.25 C -0.0195312 -6.25 -0.03125 -6.253906 -0.03125 -6.265625 C -0.0390625 -6.285156 -0.0390625 -6.300781 -0.03125 -6.3125 C 0.0625 -6.5625 0.191406 -6.753906 0.359375 -6.890625 C 0.0351562 -7.078125 -0.113281 -7.265625 -0.09375 -7.453125 Z M -0.09375 -7.453125 "/></g></g></g><g fill="#007dfc" fill-opacity="1"><g transform="translate(56.476769, 15.256646)"><g><path d="M 1.375 -1.875 C 1.375 -1.863281 1.378906 -1.851562 1.390625 -1.84375 C 1.398438 -1.832031 1.410156 -1.828125 1.421875 -1.828125 L 2.078125 -1.828125 C 2.160156 -1.828125 2.222656 -1.734375 2.265625 -1.546875 C 2.316406 -1.367188 2.34375 -1.160156 2.34375 -0.921875 C 2.34375 -0.671875 2.316406 -0.453125 2.265625 -0.265625 C 2.222656 -0.0859375 2.160156 0 2.078125 0 L 0.546875 0 C 0.535156 0 0.523438 -0.00390625 0.515625 -0.015625 C 0.503906 -0.0234375 0.5 -0.0351562 0.5 -0.046875 L 0.25 -5.09375 C 0.25 -5.09375 0.25 -5.101562 0.25 -5.125 L 1.09375 -6.0625 C 1.101562 -6.082031 1.125 -6.09375 1.15625 -6.09375 C 1.164062 -6.09375 1.175781 -6.082031 1.1875 -6.0625 C 1.207031 -6.050781 1.21875 -6.035156 1.21875 -6.015625 Z M 1.375 -1.875 "/></g></g></g><g fill="#007dfc" fill-opacity="1"><g transform="translate(58.510547, 15.256646)"><g><path d="M -0.046875 0 C -0.128906 0 -0.191406 -0.0859375 -0.234375 -0.265625 C -0.285156 -0.453125 -0.3125 -0.671875 -0.3125 -0.921875 C -0.3125 -1.160156 -0.285156 -1.367188 -0.234375 -1.546875 C -0.191406 -1.734375 -0.128906 -1.828125 -0.046875 -1.828125 L 1.4375 -1.828125 L 0.765625 -3.265625 C 0.753906 -3.285156 0.75 -3.304688 0.75 -3.328125 C 0.75 -3.335938 0.753906 -3.351562 0.765625 -3.375 L 1.296875 -4.5625 C 1.316406 -4.59375 1.335938 -4.609375 1.359375 -4.609375 C 1.378906 -4.609375 1.398438 -4.597656 1.421875 -4.578125 C 1.835938 -3.796875 2.0625 -3.078125 2.09375 -2.421875 L 1.890625 -0.125 C 1.890625 -0.0820312 1.875 -0.0507812 1.84375 -0.03125 C 1.820312 -0.0078125 1.789062 0 1.75 0 Z M 1.203125 1.921875 C 1.171875 1.960938 1.128906 1.984375 1.078125 1.984375 C 1.046875 1.984375 1.015625 1.972656 0.984375 1.953125 L 0.21875 1.390625 C 0.175781 1.359375 0.15625 1.316406 0.15625 1.265625 C 0.15625 1.234375 0.164062 1.207031 0.1875 1.1875 L 0.640625 0.5625 C 0.671875 0.519531 0.710938 0.5 0.765625 0.5 C 0.796875 0.5 0.828125 0.507812 0.859375 0.53125 L 1.59375 1.09375 C 1.632812 1.125 1.65625 1.160156 1.65625 1.203125 C 1.65625 1.234375 1.644531 1.265625 1.625 1.296875 Z M 1.203125 1.921875 "/></g></g></g><g fill="#007dfc" fill-opacity="1"><g transform="translate(60.843259, 15.256646)"><g/></g></g><g fill="#007dfc" fill-opacity="1"><g transform="translate(61.725377, 15.256646)"><g><path d="M 4.4375 -1.828125 C 4.519531 -1.828125 4.585938 -1.734375 4.640625 -1.546875 C 4.691406 -1.367188 4.71875 -1.160156 4.71875 -0.921875 C 4.71875 -0.671875 4.691406 -0.453125 4.640625 -0.265625 C 4.585938 -0.0859375 4.519531 0 4.4375 0 L 3.734375 0 C 3.441406 0 3.253906 -0.203125 3.171875 -0.609375 L 2.984375 -1.40625 C 2.890625 -1.332031 2.796875 -1.125 2.703125 -0.78125 C 2.640625 -0.613281 2.582031 -0.488281 2.53125 -0.40625 C 2.476562 -0.320312 2.40625 -0.289062 2.3125 -0.3125 L 0.390625 -0.765625 C 0.347656 -0.773438 0.3125 -0.789062 0.28125 -0.8125 C 0.257812 -0.84375 0.25 -0.878906 0.25 -0.921875 C 0.25 -0.941406 0.25 -0.957031 0.25 -0.96875 L 0.78125 -2.828125 C 0.789062 -2.847656 0.8125 -2.867188 0.84375 -2.890625 L 2.5625 -3.953125 L 2.421875 -4.59375 C 2.421875 -4.601562 2.421875 -4.613281 2.421875 -4.625 L 3 -5.453125 C 3.007812 -5.472656 3.03125 -5.484375 3.0625 -5.484375 C 3.101562 -5.484375 3.125 -5.460938 3.125 -5.421875 L 3.578125 -2.5 C 3.617188 -2.269531 3.664062 -2.097656 3.71875 -1.984375 C 3.769531 -1.878906 3.859375 -1.828125 3.984375 -1.828125 Z M 2.671875 -3.28125 C 2.617188 -3.28125 2.570312 -3.25 2.53125 -3.1875 C 2.5 -3.125 2.457031 -3.039062 2.40625 -2.9375 C 2.351562 -2.8125 2.3125 -2.726562 2.28125 -2.6875 C 2.238281 -2.632812 2.164062 -2.570312 2.0625 -2.5 C 1.988281 -2.445312 1.929688 -2.398438 1.890625 -2.359375 C 1.847656 -2.328125 1.816406 -2.28125 1.796875 -2.21875 L 2.875 -2.03125 Z M 0.453125 -6.09375 C 0.410156 -6.125 0.390625 -6.164062 0.390625 -6.21875 C 0.390625 -6.25 0.398438 -6.273438 0.421875 -6.296875 L 0.875 -6.921875 C 0.90625 -6.960938 0.945312 -6.984375 1 -6.984375 C 1.03125 -6.984375 1.0625 -6.972656 1.09375 -6.953125 L 1.765625 -6.4375 L 2.125 -6.921875 C 2.15625 -6.960938 2.191406 -6.984375 2.234375 -6.984375 C 2.273438 -6.984375 2.304688 -6.972656 2.328125 -6.953125 L 3.078125 -6.390625 C 3.117188 -6.359375 3.140625 -6.320312 3.140625 -6.28125 C 3.140625 -6.25 3.128906 -6.21875 3.109375 -6.1875 L 2.6875 -5.5625 C 2.65625 -5.519531 2.613281 -5.5 2.5625 -5.5 C 2.539062 -5.5 2.507812 -5.507812 2.46875 -5.53125 L 1.765625 -6.046875 L 1.4375 -5.5625 C 1.40625 -5.519531 1.363281 -5.5 1.3125 -5.5 C 1.28125 -5.5 1.253906 -5.507812 1.234375 -5.53125 Z M 0.453125 -6.09375 "/></g></g></g><g fill="#007dfc" fill-opacity="1"><g transform="translate(66.126165, 15.256646)"><g><path d="M -0.046875 0 C -0.128906 0 -0.191406 -0.0859375 -0.234375 -0.265625 C -0.285156 -0.453125 -0.3125 -0.671875 -0.3125 -0.921875 C -0.3125 -1.160156 -0.285156 -1.367188 -0.234375 -1.546875 C -0.191406 -1.734375 -0.128906 -1.828125 -0.046875 -1.828125 L 1.234375 -1.828125 L 1.140625 -3.375 C 1.140625 -3.375 1.144531 -3.382812 1.15625 -3.40625 L 2 -4.34375 C 2.007812 -4.363281 2.023438 -4.375 2.046875 -4.375 C 2.066406 -4.375 2.082031 -4.363281 2.09375 -4.34375 C 2.101562 -4.332031 2.113281 -4.316406 2.125 -4.296875 L 2.203125 -1.875 C 2.203125 -1.863281 2.207031 -1.851562 2.21875 -1.84375 C 2.226562 -1.832031 2.242188 -1.828125 2.265625 -1.828125 L 3.359375 -1.828125 C 3.453125 -1.828125 3.519531 -1.734375 3.5625 -1.546875 C 3.613281 -1.367188 3.640625 -1.160156 3.640625 -0.921875 C 3.640625 -0.671875 3.613281 -0.453125 3.5625 -0.265625 C 3.519531 -0.0859375 3.453125 0 3.359375 0 L 2.625 0 C 2.507812 0 2.398438 -0.0390625 2.296875 -0.125 C 2.203125 -0.207031 2.132812 -0.335938 2.09375 -0.515625 L 2.0625 -0.125 C 2.050781 -0.0820312 2.03125 -0.0507812 2 -0.03125 C 1.976562 -0.0078125 1.953125 0 1.921875 0 Z M 0.34375 1.390625 C 0.300781 1.359375 0.28125 1.316406 0.28125 1.265625 C 0.28125 1.234375 0.289062 1.207031 0.3125 1.1875 L 0.765625 0.5625 C 0.796875 0.519531 0.835938 0.5 0.890625 0.5 C 0.921875 0.5 0.953125 0.507812 0.984375 0.53125 L 1.65625 1.046875 L 2.015625 0.5625 C 2.046875 0.519531 2.082031 0.5 2.125 0.5 C 2.164062 0.5 2.195312 0.507812 2.21875 0.53125 L 2.96875 1.09375 C 3.007812 1.125 3.03125 1.160156 3.03125 1.203125 C 3.03125 1.234375 3.019531 1.265625 3 1.296875 L 2.578125 1.921875 C 2.546875 1.960938 2.503906 1.984375 2.453125 1.984375 C 2.429688 1.984375 2.398438 1.972656 2.359375 1.953125 L 1.65625 1.4375 L 1.328125 1.921875 C 1.296875 1.960938 1.253906 1.984375 1.203125 1.984375 C 1.171875 1.984375 1.144531 1.972656 1.125 1.953125 Z M 0.34375 1.390625 "/></g></g></g><g fill="#007dfc" fill-opacity="1"><g transform="translate(69.44881, 15.256646)"><g><path d="M -0.03125 0 C -0.113281 0 -0.179688 -0.0859375 -0.234375 -0.265625 C -0.285156 -0.453125 -0.3125 -0.671875 -0.3125 -0.921875 C -0.3125 -1.160156 -0.285156 -1.367188 -0.234375 -1.546875 C -0.179688 -1.734375 -0.113281 -1.828125 -0.03125 -1.828125 L 0.84375 -1.828125 L 0.703125 -2.734375 L 0.703125 -2.75 C 0.703125 -2.769531 0.710938 -2.785156 0.734375 -2.796875 L 1.8125 -3.671875 C 1.832031 -3.691406 1.847656 -3.703125 1.859375 -3.703125 C 1.867188 -3.703125 1.875 -3.691406 1.875 -3.671875 L 2.015625 -2.09375 L 2.046875 -1.890625 C 2.046875 -1.835938 2.082031 -1.8125 2.15625 -1.8125 C 2.207031 -1.8125 2.265625 -1.828125 2.328125 -1.859375 C 2.410156 -1.898438 2.539062 -1.988281 2.71875 -2.125 C 2.90625 -2.269531 3.023438 -2.363281 3.078125 -2.40625 C 3.492188 -2.71875 3.851562 -2.984375 4.15625 -3.203125 C 4.46875 -3.421875 4.773438 -3.613281 5.078125 -3.78125 C 5.390625 -3.945312 5.644531 -4.03125 5.84375 -4.03125 C 6.050781 -4.03125 6.25 -3.945312 6.4375 -3.78125 C 6.632812 -3.625 6.796875 -3.414062 6.921875 -3.15625 C 7.046875 -2.894531 7.109375 -2.632812 7.109375 -2.375 C 7.109375 -2.300781 7.097656 -2.21875 7.078125 -2.125 L 7.03125 -1.828125 L 7.65625 -1.828125 C 7.75 -1.828125 7.816406 -1.734375 7.859375 -1.546875 C 7.910156 -1.367188 7.9375 -1.160156 7.9375 -0.921875 C 7.9375 -0.671875 7.910156 -0.453125 7.859375 -0.265625 C 7.816406 -0.0859375 7.75 0 7.65625 0 L 7.34375 0 C 7.238281 0 7.132812 -0.0390625 7.03125 -0.125 C 6.9375 -0.207031 6.863281 -0.332031 6.8125 -0.5 L 6.78125 -0.125 C 6.769531 -0.09375 6.753906 -0.0625 6.734375 -0.03125 C 6.710938 -0.0078125 6.679688 0 6.640625 0 Z M 5.765625 -1.828125 C 5.796875 -1.828125 5.816406 -1.835938 5.828125 -1.859375 C 5.847656 -1.878906 5.851562 -1.90625 5.84375 -1.9375 C 5.789062 -2.207031 5.71875 -2.398438 5.625 -2.515625 C 5.53125 -2.640625 5.414062 -2.707031 5.28125 -2.71875 C 5.15625 -2.726562 4.96875 -2.664062 4.71875 -2.53125 C 4.46875 -2.394531 4.21875 -2.242188 3.96875 -2.078125 C 3.71875 -1.910156 3.601562 -1.828125 3.625 -1.828125 Z M 5.765625 -1.828125 "/></g></g></g><g fill="#007dfc" fill-opacity="1"><g transform="translate(77.074229, 15.256646)"><g><path d="M -0.03125 0 C -0.113281 0 -0.179688 -0.0859375 -0.234375 -0.265625 C -0.285156 -0.453125 -0.3125 -0.671875 -0.3125 -0.921875 C -0.3125 -1.160156 -0.285156 -1.367188 -0.234375 -1.546875 C -0.179688 -1.734375 -0.113281 -1.828125 -0.03125 -1.828125 L 0.84375 -1.828125 L 0.703125 -2.734375 L 0.703125 -2.75 C 0.703125 -2.769531 0.710938 -2.785156 0.734375 -2.796875 L 1.8125 -3.671875 C 1.832031 -3.691406 1.847656 -3.703125 1.859375 -3.703125 C 1.867188 -3.703125 1.875 -3.691406 1.875 -3.671875 L 2.015625 -2.09375 L 2.046875 -1.890625 C 2.046875 -1.835938 2.082031 -1.8125 2.15625 -1.8125 C 2.207031 -1.8125 2.265625 -1.828125 2.328125 -1.859375 C 2.410156 -1.898438 2.539062 -1.988281 2.71875 -2.125 C 2.90625 -2.269531 3.023438 -2.363281 3.078125 -2.40625 C 3.492188 -2.71875 3.851562 -2.984375 4.15625 -3.203125 C 4.46875 -3.421875 4.773438 -3.613281 5.078125 -3.78125 C 5.390625 -3.945312 5.644531 -4.03125 5.84375 -4.03125 C 6.050781 -4.03125 6.25 -3.945312 6.4375 -3.78125 C 6.632812 -3.625 6.796875 -3.414062 6.921875 -3.15625 C 7.046875 -2.894531 7.109375 -2.632812 7.109375 -2.375 C 7.109375 -2.300781 7.097656 -2.21875 7.078125 -2.125 L 7.03125 -1.828125 L 7.65625 -1.828125 C 7.75 -1.828125 7.816406 -1.734375 7.859375 -1.546875 C 7.910156 -1.367188 7.9375 -1.160156 7.9375 -0.921875 C 7.9375 -0.671875 7.910156 -0.453125 7.859375 -0.265625 C 7.816406 -0.0859375 7.75 0 7.65625 0 L 7.34375 0 C 7.238281 0 7.132812 -0.0390625 7.03125 -0.125 C 6.9375 -0.207031 6.863281 -0.332031 6.8125 -0.5 L 6.78125 -0.125 C 6.769531 -0.09375 6.753906 -0.0625 6.734375 -0.03125 C 6.710938 -0.0078125 6.679688 0 6.640625 0 Z M 5.765625 -1.828125 C 5.796875 -1.828125 5.816406 -1.835938 5.828125 -1.859375 C 5.847656 -1.878906 5.851562 -1.90625 5.84375 -1.9375 C 5.789062 -2.207031 5.71875 -2.398438 5.625 -2.515625 C 5.53125 -2.640625 5.414062 -2.707031 5.28125 -2.71875 C 5.15625 -2.726562 4.96875 -2.664062 4.71875 -2.53125 C 4.46875 -2.394531 4.21875 -2.242188 3.96875 -2.078125 C 3.71875 -1.910156 3.601562 -1.828125 3.625 -1.828125 Z M 5.765625 -1.828125 "/></g></g></g><g fill="#007dfc" fill-opacity="1"><g transform="translate(84.699649, 15.256646)"><g><path d="M 5.609375 -1.828125 C 5.691406 -1.828125 5.757812 -1.734375 5.8125 -1.546875 C 5.863281 -1.367188 5.890625 -1.160156 5.890625 -0.921875 C 5.890625 -0.671875 5.863281 -0.453125 5.8125 -0.265625 C 5.757812 -0.0859375 5.691406 0 5.609375 0 L 3.8125 0 C 3.675781 0 3.550781 -0.0390625 3.4375 -0.125 C 3.320312 -0.207031 3.257812 -0.34375 3.25 -0.53125 L 3.109375 -1.65625 C 2.890625 -1.457031 2.632812 -1.171875 2.34375 -0.796875 C 2.144531 -0.546875 1.96875 -0.347656 1.8125 -0.203125 C 1.65625 -0.0664062 1.503906 0 1.359375 0 L -0.046875 0 C -0.128906 0 -0.191406 -0.0859375 -0.234375 -0.265625 C -0.285156 -0.453125 -0.3125 -0.671875 -0.3125 -0.921875 C -0.3125 -1.160156 -0.285156 -1.367188 -0.234375 -1.546875 C -0.191406 -1.734375 -0.128906 -1.828125 -0.046875 -1.828125 L 1.890625 -1.828125 C 1.992188 -1.828125 2.101562 -1.859375 2.21875 -1.921875 C 2.332031 -1.984375 2.4375 -2.054688 2.53125 -2.140625 C 2.625 -2.222656 2.691406 -2.304688 2.734375 -2.390625 C 2.734375 -2.390625 2.734375 -2.394531 2.734375 -2.40625 C 2.734375 -2.425781 2.722656 -2.441406 2.703125 -2.453125 C 2.328125 -2.628906 1.960938 -2.71875 1.609375 -2.71875 C 1.253906 -2.71875 0.96875 -2.625 0.75 -2.4375 C 0.726562 -2.425781 0.710938 -2.421875 0.703125 -2.421875 C 0.679688 -2.421875 0.664062 -2.425781 0.65625 -2.4375 C 0.644531 -2.445312 0.640625 -2.460938 0.640625 -2.484375 C 0.722656 -3.054688 0.863281 -3.53125 1.0625 -3.90625 C 1.269531 -4.28125 1.554688 -4.472656 1.921875 -4.484375 C 2.085938 -4.484375 2.25 -4.445312 2.40625 -4.375 C 2.570312 -4.3125 2.796875 -4.203125 3.078125 -4.046875 L 3.328125 -3.90625 C 3.941406 -3.5625 4.457031 -3.394531 4.875 -3.40625 C 4.894531 -3.40625 4.910156 -3.394531 4.921875 -3.375 C 4.929688 -3.363281 4.9375 -3.351562 4.9375 -3.34375 L 4.703125 -2.109375 C 4.703125 -2.097656 4.691406 -2.085938 4.671875 -2.078125 C 4.660156 -2.078125 4.648438 -2.078125 4.640625 -2.078125 C 4.492188 -2.117188 4.351562 -2.140625 4.21875 -2.140625 C 4 -2.140625 3.785156 -2.085938 3.578125 -1.984375 C 3.585938 -1.890625 3.632812 -1.835938 3.71875 -1.828125 Z M 2.609375 -4.9375 C 2.578125 -4.894531 2.535156 -4.875 2.484375 -4.875 C 2.460938 -4.875 2.429688 -4.882812 2.390625 -4.90625 L 1.625 -5.46875 C 1.582031 -5.5 1.5625 -5.539062 1.5625 -5.59375 C 1.5625 -5.625 1.570312 -5.648438 1.59375 -5.671875 L 2.046875 -6.296875 C 2.078125 -6.335938 2.117188 -6.359375 2.171875 -6.359375 C 2.203125 -6.359375 2.234375 -6.347656 2.265625 -6.328125 L 3 -5.765625 C 3.039062 -5.734375 3.0625 -5.695312 3.0625 -5.65625 C 3.0625 -5.625 3.050781 -5.59375 3.03125 -5.5625 Z M 2.609375 -4.9375 "/></g></g></g><g fill="#007dfc" fill-opacity="1"><g transform="translate(90.2717, 15.256646)"><g><path d="M -0.046875 0 C -0.128906 0 -0.191406 -0.0859375 -0.234375 -0.265625 C -0.285156 -0.453125 -0.3125 -0.671875 -0.3125 -0.921875 C -0.3125 -1.160156 -0.285156 -1.367188 -0.234375 -1.546875 C -0.191406 -1.734375 -0.128906 -1.828125 -0.046875 -1.828125 L 1.234375 -1.828125 L 1.140625 -3.375 C 1.140625 -3.375 1.144531 -3.382812 1.15625 -3.40625 L 2 -4.34375 C 2.007812 -4.363281 2.023438 -4.375 2.046875 -4.375 C 2.066406 -4.375 2.082031 -4.363281 2.09375 -4.34375 C 2.101562 -4.332031 2.113281 -4.316406 2.125 -4.296875 L 2.203125 -1.875 C 2.203125 -1.863281 2.207031 -1.851562 2.21875 -1.84375 C 2.226562 -1.832031 2.242188 -1.828125 2.265625 -1.828125 L 3.359375 -1.828125 C 3.453125 -1.828125 3.519531 -1.734375 3.5625 -1.546875 C 3.613281 -1.367188 3.640625 -1.160156 3.640625 -0.921875 C 3.640625 -0.671875 3.613281 -0.453125 3.5625 -0.265625 C 3.519531 -0.0859375 3.453125 0 3.359375 0 L 2.625 0 C 2.507812 0 2.398438 -0.0390625 2.296875 -0.125 C 2.203125 -0.207031 2.132812 -0.335938 2.09375 -0.515625 L 2.0625 -0.125 C 2.050781 -0.0820312 2.03125 -0.0507812 2 -0.03125 C 1.976562 -0.0078125 1.953125 0 1.921875 0 Z M 0.34375 -5.46875 C 0.300781 -5.5 0.28125 -5.539062 0.28125 -5.59375 C 0.28125 -5.625 0.289062 -5.648438 0.3125 -5.671875 L 0.765625 -6.296875 C 0.796875 -6.335938 0.835938 -6.359375 0.890625 -6.359375 C 0.921875 -6.359375 0.953125 -6.347656 0.984375 -6.328125 L 1.65625 -5.8125 L 2.015625 -6.296875 C 2.046875 -6.335938 2.082031 -6.359375 2.125 -6.359375 C 2.164062 -6.359375 2.195312 -6.347656 2.21875 -6.328125 L 2.96875 -5.765625 C 3.007812 -5.734375 3.03125 -5.695312 3.03125 -5.65625 C 3.03125 -5.625 3.019531 -5.59375 3 -5.5625 L 2.578125 -4.9375 C 2.546875 -4.894531 2.503906 -4.875 2.453125 -4.875 C 2.429688 -4.875 2.398438 -4.882812 2.359375 -4.90625 L 1.65625 -5.421875 L 1.328125 -4.9375 C 1.296875 -4.894531 1.253906 -4.875 1.203125 -4.875 C 1.171875 -4.875 1.144531 -4.882812 1.125 -4.90625 Z M 0.34375 -5.46875 "/></g></g></g><g fill="#007dfc" fill-opacity="1"><g transform="translate(93.594344, 15.256646)"><g><path d="M -0.03125 0 C -0.125 0 -0.191406 -0.0859375 -0.234375 -0.265625 C -0.285156 -0.453125 -0.3125 -0.671875 -0.3125 -0.921875 C -0.3125 -1.160156 -0.285156 -1.367188 -0.234375 -1.546875 C -0.191406 -1.734375 -0.125 -1.828125 -0.03125 -1.828125 L 1.296875 -1.828125 C 1.347656 -1.828125 1.375 -1.851562 1.375 -1.90625 L 1.09375 -4.203125 C 1.070312 -4.378906 1.035156 -4.515625 0.984375 -4.609375 C 0.929688 -4.710938 0.84375 -4.800781 0.71875 -4.875 C 0.695312 -4.882812 0.6875 -4.90625 0.6875 -4.9375 L 0.703125 -4.96875 L 1.28125 -6.078125 C 1.289062 -6.097656 1.304688 -6.109375 1.328125 -6.109375 C 1.347656 -6.109375 1.363281 -6.097656 1.375 -6.078125 C 1.488281 -5.867188 1.648438 -5.6875 1.859375 -5.53125 C 2.078125 -5.375 2.304688 -5.273438 2.546875 -5.234375 C 2.597656 -5.222656 2.613281 -5.195312 2.59375 -5.15625 L 2.1875 -4.328125 C 2.164062 -4.285156 2.132812 -4.269531 2.09375 -4.28125 L 2 -4.3125 C 1.988281 -4.3125 1.976562 -4.3125 1.96875 -4.3125 C 1.9375 -4.3125 1.921875 -4.289062 1.921875 -4.25 C 1.921875 -4.03125 1.9375 -3.617188 1.96875 -3.015625 C 2.007812 -2.410156 2.046875 -2.023438 2.078125 -1.859375 L 2.078125 -1.84375 C 2.078125 -1.820312 2.070312 -1.800781 2.0625 -1.78125 L 1.578125 -0.0625 C 1.554688 -0.0195312 1.523438 0 1.484375 0 Z M -0.03125 0 "/></g></g></g><g fill="#007dfc" fill-opacity="1"><g transform="translate(96.441631, 15.256646)"><g><path d="M 0.578125 0.328125 C 0.566406 0.335938 0.554688 0.34375 0.546875 0.34375 C 0.523438 0.34375 0.515625 0.328125 0.515625 0.296875 L 0.25 -5.0625 C 0.25 -5.082031 0.253906 -5.101562 0.265625 -5.125 L 1.15625 -6.125 C 1.164062 -6.132812 1.175781 -6.140625 1.1875 -6.140625 C 1.207031 -6.140625 1.21875 -6.128906 1.21875 -6.109375 L 1.359375 -2.09375 C 1.359375 -1.59375 1.300781 -1.148438 1.1875 -0.765625 C 1.070312 -0.378906 0.867188 -0.015625 0.578125 0.328125 Z M 0.578125 0.328125 "/></g></g></g><g fill="#007dfc" fill-opacity="1"><g transform="translate(98.04415, 15.256646)"><g/></g></g><g fill="#007dfc" fill-opacity="1"><g transform="translate(98.926268, 15.256646)"><g><path d="M 0.65625 -3.875 C 0.664062 -3.875 0.675781 -3.863281 0.6875 -3.84375 C 0.695312 -3.820312 0.695312 -3.796875 0.6875 -3.765625 C 0.644531 -3.515625 0.625 -3.285156 0.625 -3.078125 C 0.625 -2.703125 0.695312 -2.398438 0.84375 -2.171875 C 1 -1.941406 1.238281 -1.828125 1.5625 -1.828125 L 5.4375 -1.828125 L 4.765625 -3.265625 C 4.765625 -3.285156 4.765625 -3.304688 4.765625 -3.328125 C 4.765625 -3.335938 4.765625 -3.351562 4.765625 -3.375 L 5.296875 -4.5625 C 5.316406 -4.59375 5.335938 -4.609375 5.359375 -4.609375 C 5.378906 -4.609375 5.398438 -4.597656 5.421875 -4.578125 C 5.847656 -3.742188 6.070312 -3.023438 6.09375 -2.421875 L 5.890625 -0.125 C 5.890625 -0.0820312 5.875 -0.0507812 5.84375 -0.03125 C 5.820312 -0.0078125 5.789062 0 5.75 0 L 1.625 0 C 1.3125 0 1.050781 -0.09375 0.84375 -0.28125 C 0.632812 -0.46875 0.484375 -0.710938 0.390625 -1.015625 C 0.296875 -1.328125 0.25 -1.671875 0.25 -2.046875 C 0.25 -2.347656 0.273438 -2.648438 0.328125 -2.953125 C 0.390625 -3.265625 0.476562 -3.550781 0.59375 -3.8125 C 0.59375 -3.820312 0.597656 -3.832031 0.609375 -3.84375 C 0.628906 -3.863281 0.644531 -3.875 0.65625 -3.875 Z M 1.65625 -4.140625 C 1.613281 -4.171875 1.59375 -4.210938 1.59375 -4.265625 C 1.59375 -4.296875 1.601562 -4.320312 1.625 -4.34375 L 2.078125 -4.96875 C 2.109375 -5.007812 2.148438 -5.03125 2.203125 -5.03125 C 2.234375 -5.03125 2.265625 -5.019531 2.296875 -5 L 2.96875 -4.484375 L 3.328125 -4.96875 C 3.359375 -5.007812 3.394531 -5.03125 3.4375 -5.03125 C 3.476562 -5.03125 3.507812 -5.019531 3.53125 -5 L 4.28125 -4.4375 C 4.320312 -4.40625 4.34375 -4.367188 4.34375 -4.328125 C 4.34375 -4.296875 4.332031 -4.265625 4.3125 -4.234375 L 3.890625 -3.609375 C 3.859375 -3.566406 3.816406 -3.546875 3.765625 -3.546875 C 3.742188 -3.546875 3.710938 -3.554688 3.671875 -3.578125 L 2.96875 -4.09375 L 2.640625 -3.609375 C 2.609375 -3.566406 2.566406 -3.546875 2.515625 -3.546875 C 2.484375 -3.546875 2.457031 -3.554688 2.4375 -3.578125 Z M 1.65625 -4.140625 "/></g></g></g><g fill="#007dfc" fill-opacity="1"><g transform="translate(105.267716, 15.256646)"><g><path d="M -0.46875 0.828125 C -0.476562 0.804688 -0.484375 0.789062 -0.484375 0.78125 C -0.484375 0.757812 -0.476562 0.742188 -0.46875 0.734375 C -0.457031 0.734375 -0.445312 0.738281 -0.4375 0.75 C -0.21875 0.9375 0.0234375 1.03125 0.296875 1.03125 C 0.566406 1.03125 0.820312 0.953125 1.0625 0.796875 C 1.3125 0.640625 1.519531 0.425781 1.6875 0.15625 C 1.863281 -0.101562 1.972656 -0.382812 2.015625 -0.6875 C 1.941406 -0.925781 1.832031 -1.164062 1.6875 -1.40625 C 1.550781 -1.644531 1.363281 -1.925781 1.125 -2.25 C 1.101562 -2.28125 1.09375 -2.304688 1.09375 -2.328125 C 1.09375 -2.335938 1.097656 -2.359375 1.109375 -2.390625 L 1.734375 -3.5 C 1.753906 -3.53125 1.773438 -3.546875 1.796875 -3.546875 C 1.828125 -3.546875 1.851562 -3.523438 1.875 -3.484375 C 2.03125 -3.140625 2.15625 -2.832031 2.25 -2.5625 C 2.34375 -2.300781 2.414062 -2.039062 2.46875 -1.78125 C 2.53125 -1.425781 2.5625 -1.046875 2.5625 -0.640625 C 2.5625 -0.179688 2.515625 0.25 2.421875 0.65625 C 2.335938 1.0625 2.195312 1.390625 2 1.640625 C 1.8125 1.890625 1.582031 2.015625 1.3125 2.015625 C 1 2.015625 0.703125 1.90625 0.421875 1.6875 C 0.140625 1.476562 -0.15625 1.191406 -0.46875 0.828125 Z M -0.46875 0.828125 "/></g></g></g><g fill="#007dfc" fill-opacity="1"><g transform="translate(108.075798, 15.256646)"><g><path d="M 1.375 -1.875 C 1.375 -1.863281 1.378906 -1.851562 1.390625 -1.84375 C 1.398438 -1.832031 1.410156 -1.828125 1.421875 -1.828125 L 2.078125 -1.828125 C 2.160156 -1.828125 2.222656 -1.734375 2.265625 -1.546875 C 2.316406 -1.367188 2.34375 -1.160156 2.34375 -0.921875 C 2.34375 -0.671875 2.316406 -0.453125 2.265625 -0.265625 C 2.222656 -0.0859375 2.160156 0 2.078125 0 L 0.546875 0 C 0.535156 0 0.523438 -0.00390625 0.515625 -0.015625 C 0.503906 -0.0234375 0.5 -0.0351562 0.5 -0.046875 L 0.25 -5.09375 C 0.25 -5.09375 0.25 -5.101562 0.25 -5.125 L 1.09375 -6.0625 C 1.101562 -6.082031 1.125 -6.09375 1.15625 -6.09375 C 1.164062 -6.09375 1.175781 -6.082031 1.1875 -6.0625 C 1.207031 -6.050781 1.21875 -6.035156 1.21875 -6.015625 Z M 1.375 -1.875 "/></g></g></g><g fill="#007dfc" fill-opacity="1"><g transform="translate(110.109575, 15.256646)"><g><path d="M 4.15625 -1.828125 C 4.25 -1.828125 4.320312 -1.734375 4.375 -1.546875 C 4.425781 -1.367188 4.453125 -1.160156 4.453125 -0.921875 C 4.453125 -0.671875 4.425781 -0.453125 4.375 -0.265625 C 4.320312 -0.0859375 4.25 0 4.15625 0 L 3.46875 0 L 3.21875 0.484375 C 3.1875 0.535156 3.144531 0.5625 3.09375 0.5625 C 3.0625 0.5625 3.03125 0.550781 3 0.53125 L 1.28125 -0.953125 C 1.269531 -0.953125 1.257812 -0.953125 1.25 -0.953125 C 1.238281 -0.953125 1.226562 -0.945312 1.21875 -0.9375 C 1.1875 -0.894531 1.160156 -0.84375 1.140625 -0.78125 C 1.117188 -0.71875 1.101562 -0.644531 1.09375 -0.5625 C 1.070312 -0.4375 1.046875 -0.335938 1.015625 -0.265625 C 0.992188 -0.191406 0.953125 -0.128906 0.890625 -0.078125 C 0.828125 -0.0234375 0.75 0 0.65625 0 L -0.03125 0 C -0.113281 0 -0.179688 -0.0859375 -0.234375 -0.265625 C -0.285156 -0.453125 -0.3125 -0.671875 -0.3125 -0.921875 C -0.3125 -1.160156 -0.285156 -1.367188 -0.234375 -1.546875 C -0.179688 -1.734375 -0.113281 -1.828125 -0.03125 -1.828125 L 1.109375 -1.828125 C 1.179688 -1.828125 1.242188 -1.945312 1.296875 -2.1875 C 1.410156 -2.613281 1.582031 -2.953125 1.8125 -3.203125 C 2.050781 -3.453125 2.378906 -3.632812 2.796875 -3.75 C 2.859375 -3.757812 2.910156 -3.765625 2.953125 -3.765625 C 3.109375 -3.765625 3.195312 -3.675781 3.21875 -3.5 C 3.226562 -3.320312 3.265625 -3.097656 3.328125 -2.828125 C 3.398438 -2.554688 3.488281 -2.320312 3.59375 -2.125 C 3.707031 -1.925781 3.828125 -1.828125 3.953125 -1.828125 Z M 2.703125 -2.015625 C 2.703125 -2.378906 2.609375 -2.5625 2.421875 -2.5625 C 2.316406 -2.5625 2.179688 -2.5 2.015625 -2.375 L 2.703125 -1.890625 Z M 2.703125 -2.015625 "/></g></g></g><g fill="#007dfc" fill-opacity="1"><g transform="translate(114.245728, 15.256646)"><g><path d="M -0.03125 0 C -0.125 0 -0.191406 -0.0859375 -0.234375 -0.265625 C -0.285156 -0.453125 -0.3125 -0.671875 -0.3125 -0.921875 C -0.3125 -1.160156 -0.285156 -1.367188 -0.234375 -1.546875 C -0.191406 -1.734375 -0.125 -1.828125 -0.03125 -1.828125 L 0.671875 -1.828125 C 0.847656 -1.828125 1 -1.875 1.125 -1.96875 C 1.25 -2.0625 1.351562 -2.171875 1.4375 -2.296875 C 1.519531 -2.429688 1.609375 -2.597656 1.703125 -2.796875 C 1.703125 -2.816406 1.707031 -2.835938 1.71875 -2.859375 C 1.726562 -2.878906 1.738281 -2.898438 1.75 -2.921875 C 1.78125 -2.972656 1.8125 -3.007812 1.84375 -3.03125 C 1.882812 -3.0625 1.953125 -3.109375 2.046875 -3.171875 C 2.160156 -3.222656 2.226562 -3.257812 2.25 -3.28125 C 2.269531 -3.289062 2.296875 -3.296875 2.328125 -3.296875 C 2.335938 -3.296875 2.347656 -3.289062 2.359375 -3.28125 C 2.367188 -3.28125 2.375 -3.269531 2.375 -3.25 C 2.351562 -3.175781 2.332031 -3.097656 2.3125 -3.015625 C 2.300781 -2.929688 2.285156 -2.847656 2.265625 -2.765625 C 2.203125 -2.367188 2.144531 -2.054688 2.09375 -1.828125 L 2.921875 -1.96875 C 3.097656 -2 3.25 -2.078125 3.375 -2.203125 C 3.5 -2.328125 3.601562 -2.472656 3.6875 -2.640625 C 3.769531 -2.804688 3.863281 -3.015625 3.96875 -3.265625 C 3.976562 -3.285156 3.992188 -3.304688 4.015625 -3.328125 L 4.5625 -3.65625 L 4.59375 -3.671875 C 4.613281 -3.671875 4.625 -3.65625 4.625 -3.625 L 4.15625 -2.015625 L 4.15625 -2 C 4.15625 -1.976562 4.164062 -1.960938 4.1875 -1.953125 L 5.4375 -1.6875 L 5.453125 -1.6875 C 5.484375 -1.6875 5.488281 -1.703125 5.46875 -1.734375 L 5.140625 -2.5 C 5.140625 -2.53125 5.140625 -2.554688 5.140625 -2.578125 L 5.671875 -3.703125 C 5.679688 -3.722656 5.695312 -3.734375 5.71875 -3.734375 C 5.726562 -3.734375 5.738281 -3.71875 5.75 -3.6875 C 5.90625 -3.195312 6.019531 -2.800781 6.09375 -2.5 C 6.175781 -2.195312 6.21875 -1.953125 6.21875 -1.765625 C 6.21875 -1.679688 6.207031 -1.601562 6.1875 -1.53125 C 6.113281 -1.300781 6.003906 -0.90625 5.859375 -0.34375 C 5.859375 -0.363281 5.820312 -0.253906 5.75 -0.015625 C 5.75 0.015625 5.726562 0.03125 5.6875 0.03125 L 3.609375 -0.390625 C 3.585938 -0.398438 3.566406 -0.398438 3.546875 -0.390625 L 1.640625 -0.109375 C 1.617188 -0.109375 1.601562 -0.113281 1.59375 -0.125 C 1.59375 -0.132812 1.59375 -0.144531 1.59375 -0.15625 L 1.6875 -0.6875 C 1.4375 -0.226562 1.128906 0 0.765625 0 Z M -0.03125 0 "/></g></g></g><g fill="#007dfc" fill-opacity="1"><g transform="translate(120.714593, 15.256646)"><g/></g></g><g fill="#007dfc" fill-opacity="1"><g transform="translate(121.596711, 15.256646)"><g><path d="M 0.65625 -3.875 C 0.664062 -3.875 0.675781 -3.863281 0.6875 -3.84375 C 0.695312 -3.820312 0.695312 -3.796875 0.6875 -3.765625 C 0.644531 -3.515625 0.625 -3.285156 0.625 -3.078125 C 0.625 -2.703125 0.695312 -2.398438 0.84375 -2.171875 C 1 -1.941406 1.238281 -1.828125 1.5625 -1.828125 L 5.4375 -1.828125 L 4.765625 -3.265625 C 4.765625 -3.285156 4.765625 -3.304688 4.765625 -3.328125 C 4.765625 -3.335938 4.765625 -3.351562 4.765625 -3.375 L 5.296875 -4.5625 C 5.316406 -4.59375 5.335938 -4.609375 5.359375 -4.609375 C 5.378906 -4.609375 5.398438 -4.597656 5.421875 -4.578125 C 5.847656 -3.742188 6.070312 -3.023438 6.09375 -2.421875 L 5.890625 -0.125 C 5.890625 -0.0820312 5.875 -0.0507812 5.84375 -0.03125 C 5.820312 -0.0078125 5.789062 0 5.75 0 L 1.625 0 C 1.3125 0 1.050781 -0.09375 0.84375 -0.28125 C 0.632812 -0.46875 0.484375 -0.710938 0.390625 -1.015625 C 0.296875 -1.328125 0.25 -1.671875 0.25 -2.046875 C 0.25 -2.347656 0.273438 -2.648438 0.328125 -2.953125 C 0.390625 -3.265625 0.476562 -3.550781 0.59375 -3.8125 C 0.59375 -3.820312 0.597656 -3.832031 0.609375 -3.84375 C 0.628906 -3.863281 0.644531 -3.875 0.65625 -3.875 Z M 1.65625 -4.140625 C 1.613281 -4.171875 1.59375 -4.210938 1.59375 -4.265625 C 1.59375 -4.296875 1.601562 -4.320312 1.625 -4.34375 L 2.078125 -4.96875 C 2.109375 -5.007812 2.148438 -5.03125 2.203125 -5.03125 C 2.234375 -5.03125 2.265625 -5.019531 2.296875 -5 L 2.96875 -4.484375 L 3.328125 -4.96875 C 3.359375 -5.007812 3.394531 -5.03125 3.4375 -5.03125 C 3.476562 -5.03125 3.507812 -5.019531 3.53125 -5 L 4.28125 -4.4375 C 4.320312 -4.40625 4.34375 -4.367188 4.34375 -4.328125 C 4.34375 -4.296875 4.332031 -4.265625 4.3125 -4.234375 L 3.890625 -3.609375 C 3.859375 -3.566406 3.816406 -3.546875 3.765625 -3.546875 C 3.742188 -3.546875 3.710938 -3.554688 3.671875 -3.578125 L 2.96875 -4.09375 L 2.640625 -3.609375 C 2.609375 -3.566406 2.566406 -3.546875 2.515625 -3.546875 C 2.484375 -3.546875 2.457031 -3.554688 2.4375 -3.578125 Z M 1.65625 -4.140625 "/></g></g></g><g fill="#007dfc" fill-opacity="1"><g transform="translate(127.938159, 15.256646)"><g><path d="M 0.578125 0.328125 C 0.566406 0.335938 0.554688 0.34375 0.546875 0.34375 C 0.523438 0.34375 0.515625 0.328125 0.515625 0.296875 L 0.25 -5.0625 C 0.25 -5.082031 0.253906 -5.101562 0.265625 -5.125 L 1.15625 -6.125 C 1.164062 -6.132812 1.175781 -6.140625 1.1875 -6.140625 C 1.207031 -6.140625 1.21875 -6.128906 1.21875 -6.109375 L 1.359375 -2.09375 C 1.359375 -1.59375 1.300781 -1.148438 1.1875 -0.765625 C 1.070312 -0.378906 0.867188 -0.015625 0.578125 0.328125 Z M 0.578125 0.328125 "/></g></g></g><g fill="#007dfc" fill-opacity="1"><g transform="translate(129.540679, 15.256646)"><g><path d="M 1.75 -3.359375 C 1.695312 -3.390625 1.675781 -3.429688 1.6875 -3.484375 L 2.03125 -4.890625 C 2.039062 -4.929688 2.066406 -4.953125 2.109375 -4.953125 C 2.117188 -4.953125 2.132812 -4.945312 2.15625 -4.9375 C 2.664062 -4.644531 3.035156 -4.269531 3.265625 -3.8125 C 3.503906 -3.351562 3.625 -2.8125 3.625 -2.1875 C 3.625 -1.59375 3.523438 -0.894531 3.328125 -0.09375 C 3.304688 -0.03125 3.269531 0 3.21875 0 L 0.34375 0 C 0.28125 0 0.25 -0.0351562 0.25 -0.109375 L 0.265625 -1.78125 C 0.265625 -1.8125 0.269531 -1.832031 0.28125 -1.84375 C 0.300781 -1.863281 0.328125 -1.875 0.359375 -1.875 L 2.90625 -1.875 C 2.875 -2.414062 2.488281 -2.910156 1.75 -3.359375 Z M 1.75 -3.359375 "/></g></g></g><g fill="#007dfc" fill-opacity="1"><g transform="translate(133.412197, 15.256646)"><g><path d="M 1.375 -1.875 C 1.375 -1.863281 1.378906 -1.851562 1.390625 -1.84375 C 1.398438 -1.832031 1.410156 -1.828125 1.421875 -1.828125 L 2.078125 -1.828125 C 2.160156 -1.828125 2.222656 -1.734375 2.265625 -1.546875 C 2.316406 -1.367188 2.34375 -1.160156 2.34375 -0.921875 C 2.34375 -0.671875 2.316406 -0.453125 2.265625 -0.265625 C 2.222656 -0.0859375 2.160156 0 2.078125 0 L 0.546875 0 C 0.535156 0 0.523438 -0.00390625 0.515625 -0.015625 C 0.503906 -0.0234375 0.5 -0.0351562 0.5 -0.046875 L 0.25 -5.09375 C 0.25 -5.09375 0.25 -5.101562 0.25 -5.125 L 1.09375 -6.0625 C 1.101562 -6.082031 1.125 -6.09375 1.15625 -6.09375 C 1.164062 -6.09375 1.175781 -6.082031 1.1875 -6.0625 C 1.207031 -6.050781 1.21875 -6.035156 1.21875 -6.015625 Z M 1.375 -1.875 "/></g></g></g><g fill="#007dfc" fill-opacity="1"><g transform="translate(135.445975, 15.256646)"><g><path d="M -0.046875 0 C -0.128906 0 -0.191406 -0.0859375 -0.234375 -0.265625 C -0.285156 -0.453125 -0.3125 -0.671875 -0.3125 -0.921875 C -0.3125 -1.160156 -0.285156 -1.367188 -0.234375 -1.546875 C -0.191406 -1.734375 -0.128906 -1.828125 -0.046875 -1.828125 L 1.234375 -1.828125 L 1.140625 -3.375 C 1.140625 -3.375 1.144531 -3.382812 1.15625 -3.40625 L 2 -4.34375 C 2.007812 -4.363281 2.023438 -4.375 2.046875 -4.375 C 2.066406 -4.375 2.082031 -4.363281 2.09375 -4.34375 C 2.101562 -4.332031 2.113281 -4.316406 2.125 -4.296875 L 2.203125 -1.875 C 2.203125 -1.863281 2.207031 -1.851562 2.21875 -1.84375 C 2.226562 -1.832031 2.242188 -1.828125 2.265625 -1.828125 L 3.359375 -1.828125 C 3.453125 -1.828125 3.519531 -1.734375 3.5625 -1.546875 C 3.613281 -1.367188 3.640625 -1.160156 3.640625 -0.921875 C 3.640625 -0.671875 3.613281 -0.453125 3.5625 -0.265625 C 3.519531 -0.0859375 3.453125 0 3.359375 0 L 2.625 0 C 2.507812 0 2.398438 -0.0390625 2.296875 -0.125 C 2.203125 -0.207031 2.132812 -0.335938 2.09375 -0.515625 L 2.0625 -0.125 C 2.050781 -0.0820312 2.03125 -0.0507812 2 -0.03125 C 1.976562 -0.0078125 1.953125 0 1.921875 0 Z M 0.34375 1.390625 C 0.300781 1.359375 0.28125 1.316406 0.28125 1.265625 C 0.28125 1.234375 0.289062 1.207031 0.3125 1.1875 L 0.765625 0.5625 C 0.796875 0.519531 0.835938 0.5 0.890625 0.5 C 0.921875 0.5 0.953125 0.507812 0.984375 0.53125 L 1.65625 1.046875 L 2.015625 0.5625 C 2.046875 0.519531 2.082031 0.5 2.125 0.5 C 2.164062 0.5 2.195312 0.507812 2.21875 0.53125 L 2.96875 1.09375 C 3.007812 1.125 3.03125 1.160156 3.03125 1.203125 C 3.03125 1.234375 3.019531 1.265625 3 1.296875 L 2.578125 1.921875 C 2.546875 1.960938 2.503906 1.984375 2.453125 1.984375 C 2.429688 1.984375 2.398438 1.972656 2.359375 1.953125 L 1.65625 1.4375 L 1.328125 1.921875 C 1.296875 1.960938 1.253906 1.984375 1.203125 1.984375 C 1.171875 1.984375 1.144531 1.972656 1.125 1.953125 Z M 0.34375 1.390625 "/></g></g></g><g fill="#007dfc" fill-opacity="1"><g transform="translate(138.768619, 15.256646)"><g><path d="M 4.546875 -1.828125 C 4.566406 -1.828125 4.582031 -1.820312 4.59375 -1.8125 C 4.601562 -1.800781 4.601562 -1.785156 4.59375 -1.765625 L 4.234375 -0.078125 C 4.222656 -0.0234375 4.191406 0 4.140625 0 L -0.046875 0 C -0.128906 0 -0.191406 -0.0859375 -0.234375 -0.265625 C -0.285156 -0.453125 -0.3125 -0.671875 -0.3125 -0.921875 C -0.3125 -1.160156 -0.285156 -1.367188 -0.234375 -1.546875 C -0.191406 -1.734375 -0.128906 -1.828125 -0.046875 -1.828125 L 0.796875 -1.828125 C 0.710938 -1.992188 0.671875 -2.175781 0.671875 -2.375 C 0.671875 -2.59375 0.710938 -2.785156 0.796875 -2.953125 C 0.921875 -3.203125 1.085938 -3.441406 1.296875 -3.671875 C 1.503906 -3.898438 1.726562 -4.085938 1.96875 -4.234375 C 2.207031 -4.390625 2.429688 -4.46875 2.640625 -4.46875 C 2.859375 -4.46875 3.066406 -4.382812 3.265625 -4.21875 C 3.472656 -4.0625 3.644531 -3.859375 3.78125 -3.609375 C 3.925781 -3.367188 4.015625 -3.128906 4.046875 -2.890625 C 4.046875 -2.867188 4.035156 -2.851562 4.015625 -2.84375 C 3.992188 -2.84375 3.976562 -2.847656 3.96875 -2.859375 C 3.820312 -3.015625 3.632812 -3.132812 3.40625 -3.21875 C 3.1875 -3.300781 2.957031 -3.34375 2.71875 -3.34375 C 2.488281 -3.34375 2.269531 -3.304688 2.0625 -3.234375 C 1.851562 -3.171875 1.679688 -3.078125 1.546875 -2.953125 C 1.515625 -2.921875 1.5 -2.878906 1.5 -2.828125 C 1.5 -2.710938 1.550781 -2.570312 1.65625 -2.40625 C 1.769531 -2.25 1.90625 -2.113281 2.0625 -2 C 2.21875 -1.882812 2.363281 -1.828125 2.5 -1.828125 Z M 4.546875 -1.828125 "/></g></g></g></svg>