<svg id="svg" version="1.1" xmlns="http://www.w3.org/2000/svg" xmlns:xlink="http://www.w3.org/1999/xlink" width="400" height="400" viewBox="0, 0, 400,400"><g id="svgg"><path id="path0" d="M194.400 43.200 C 188.766 44.073,182.194 45.422,179.800 46.196 C 178.920 46.480,177.030 47.071,175.600 47.510 C 144.304 57.101,118.956 82.671,107.969 115.733 C 104.556 126.003,104.458 127.307,107.001 128.520 C 111.190 130.517,112.989 128.869,114.775 121.400 C 116.235 115.295,116.418 114.668,117.399 112.400 C 117.923 111.190,118.922 108.850,119.620 107.200 C 125.448 93.423,135.323 80.716,148.600 69.908 C 170.826 51.816,203.995 45.117,233.000 52.863 C 259.907 60.048,282.747 78.515,294.858 102.878 C 297.962 109.123,301.236 118.040,302.968 124.969 C 304.103 129.510,308.917 130.853,310.703 127.127 C 311.694 125.061,308.334 113.605,303.938 104.060 C 303.092 102.223,302.400 100.662,302.400 100.590 C 302.400 99.388,291.467 82.461,289.618 80.800 C 289.495 80.690,287.894 78.913,286.060 76.852 C 276.089 65.644,259.375 54.078,246.400 49.406 C 237.494 46.199,233.244 45.093,223.200 43.370 C 217.033 42.312,200.745 42.215,194.400 43.200 M212.000 95.218 C 203.651 97.233,193.626 107.185,191.979 115.095 C 189.054 129.134,197.383 141.997,215.110 150.819 C 237.340 161.882,241.663 166.182,243.636 179.191 C 245.826 193.631,232.588 201.569,220.592 193.009 C 214.935 188.972,212.777 185.328,211.383 177.452 C 210.015 169.728,208.900 165.588,207.867 164.400 C 200.142 155.510,189.731 169.007,193.366 183.200 C 197.799 200.511,228.875 208.567,247.327 197.188 C 248.386 196.535,249.351 196.000,249.472 196.000 C 250.053 196.000,255.980 190.608,257.255 188.919 C 261.521 183.269,262.581 180.013,262.567 172.600 C 262.539 158.260,255.489 150.279,231.200 137.090 C 215.288 128.450,208.206 121.673,206.716 113.660 C 205.733 108.371,208.069 102.592,212.972 98.186 C 216.661 94.871,216.425 94.150,212.000 95.218 M108.800 159.047 C 107.590 159.354,106.029 159.509,105.331 159.390 C 103.523 159.084,103.456 159.469,104.432 164.496 C 106.170 173.445,110.135 185.497,113.789 192.937 C 135.028 236.182,182.334 259.637,229.200 250.159 C 230.850 249.825,232.740 249.385,233.400 249.182 C 234.060 248.979,236.220 248.341,238.200 247.765 C 263.558 240.386,286.739 221.892,299.612 198.769 C 300.521 197.136,301.518 195.350,301.827 194.800 C 305.909 187.539,310.032 174.598,311.803 163.484 C 312.547 158.814,312.544 158.808,310.088 159.293 C 308.561 159.595,307.831 159.540,306.616 159.032 C 305.770 158.679,305.017 158.449,304.944 158.522 C 304.818 158.648,303.563 164.889,303.017 168.105 C 301.790 175.332,296.221 188.796,290.651 198.000 C 272.641 227.760,237.162 246.382,203.400 243.794 C 186.461 242.496,178.544 240.423,164.834 233.695 C 138.145 220.599,118.137 193.965,113.012 164.712 C 112.481 161.680,111.935 159.019,111.800 158.799 C 111.513 158.336,111.644 158.325,108.800 159.047 M96.874 276.274 C 95.907 276.661,95.682 278.200,95.977 282.416 C 96.138 284.717,96.164 290.621,96.035 295.536 C 95.727 307.238,97.042 306.147,83.609 305.852 C 69.741 305.547,69.346 305.405,69.487 300.753 C 69.587 297.441,68.983 296.800,65.760 296.800 C 63.178 296.800,62.958 297.087,62.690 300.821 C 62.178 307.960,64.240 310.797,70.822 312.013 C 74.296 312.654,95.484 312.647,98.585 312.003 C 100.360 311.635,101.605 311.637,104.137 312.013 C 106.280 312.331,108.979 312.398,112.000 312.207 C 114.530 312.047,117.950 311.961,119.600 312.015 C 123.395 312.140,132.712 312.108,135.600 311.961 C 136.810 311.899,139.675 312.061,141.967 312.321 C 145.194 312.687,146.728 312.685,148.767 312.313 C 150.215 312.048,152.300 311.862,153.400 311.899 C 154.500 311.936,158.674 312.081,162.675 312.222 C 173.372 312.597,176.471 311.595,178.387 307.141 C 180.035 303.310,179.139 300.023,175.296 295.800 C 171.687 291.835,171.779 290.815,176.304 284.600 C 179.527 280.172,179.472 279.056,175.940 277.215 C 173.136 275.754,172.843 276.032,168.586 284.200 C 167.096 287.060,165.553 289.762,165.157 290.205 C 162.981 292.643,162.954 294.841,165.084 296.198 C 173.934 301.841,174.037 305.666,165.347 305.942 C 155.279 306.262,156.000 307.430,156.000 290.794 C 156.000 275.077,156.260 275.995,151.811 276.006 C 147.922 276.016,148.200 274.915,148.200 290.287 C 148.200 306.771,148.299 306.495,142.625 305.786 C 139.040 305.338,139.030 305.319,138.800 298.755 L 138.600 293.042 137.368 292.324 C 136.691 291.929,135.187 291.565,134.028 291.514 C 131.007 291.383,130.832 291.743,130.909 297.945 C 131.001 305.398,130.272 306.379,125.054 305.821 C 121.334 305.422,121.184 305.135,121.172 298.367 C 121.161 291.815,121.040 291.600,117.367 291.600 C 115.692 291.600,114.661 291.796,114.269 292.188 C 113.637 292.821,112.957 297.283,113.387 297.980 C 113.531 298.212,113.521 299.696,113.365 301.278 C 112.952 305.471,112.138 306.195,108.270 305.817 C 103.694 305.369,104.000 306.447,104.000 290.767 C 104.000 275.039,104.251 275.982,100.071 276.032 C 98.602 276.049,97.163 276.158,96.874 276.274 M257.770 276.448 C 257.297 277.213,257.589 305.633,258.087 307.315 C 259.436 311.869,269.472 314.246,275.296 311.390 C 276.781 310.661,276.814 310.663,280.096 311.730 C 284.293 313.093,286.732 313.097,290.476 311.743 C 293.366 310.699,293.422 310.695,295.332 311.371 C 299.557 312.868,307.074 313.014,312.482 311.705 C 314.738 311.158,315.342 311.138,316.282 311.578 C 318.235 312.490,324.371 312.609,326.991 311.785 C 328.904 311.184,329.494 311.146,330.620 311.553 C 334.244 312.863,344.270 312.794,344.779 311.455 C 345.231 310.267,344.797 292.723,344.300 292.100 C 344.051 291.787,342.871 291.600,341.141 291.600 C 337.694 291.600,337.600 291.779,337.600 298.366 C 337.600 304.824,337.296 305.600,334.761 305.600 C 331.724 305.600,331.331 304.980,330.985 299.643 C 330.639 294.310,330.548 294.196,326.720 294.312 C 323.054 294.422,323.200 294.227,323.200 299.036 C 323.200 305.486,322.544 306.536,319.112 305.582 C 316.929 304.976,316.400 303.958,316.400 300.360 C 316.400 296.632,316.241 296.468,312.464 296.316 C 308.909 296.173,308.814 296.288,308.806 300.718 C 308.797 305.673,308.215 306.151,302.566 305.841 C 296.906 305.531,296.000 304.838,296.000 300.819 C 296.000 297.712,292.277 292.663,289.240 291.652 C 284.796 290.174,280.739 291.271,277.400 294.855 C 274.919 297.518,274.264 298.601,272.788 302.484 C 271.414 306.101,268.411 307.247,266.174 305.010 L 265.087 303.924 265.287 290.770 C 265.526 275.035,265.793 276.000,261.201 276.000 C 259.304 276.000,257.937 276.179,257.770 276.448 M115.755 279.192 C 115.291 279.380,114.526 280.023,114.055 280.621 C 111.193 284.259,116.344 288.518,119.631 285.231 C 122.459 282.402,119.443 277.702,115.755 279.192 M210.492 279.451 C 206.795 281.058,209.182 286.674,213.372 286.226 C 216.551 285.887,217.057 285.885,219.244 286.214 C 221.507 286.554,222.953 285.759,223.592 283.825 C 224.500 281.074,222.677 278.977,219.722 279.374 C 217.466 279.676,216.190 279.686,213.200 279.424 C 211.990 279.317,210.771 279.330,210.492 279.451 M81.723 289.204 C 80.556 289.674,79.717 291.024,78.966 293.641 C 77.432 298.984,77.446 299.000,83.829 299.000 L 88.600 299.000 88.721 297.758 C 88.840 296.533,88.813 296.513,86.721 296.296 C 81.557 295.761,79.883 292.612,83.875 290.943 C 84.576 290.650,85.656 290.503,86.275 290.616 C 87.824 290.899,88.733 290.283,88.025 289.430 C 87.441 288.727,83.279 288.577,81.723 289.204 M231.600 291.522 C 229.394 291.715,229.200 292.285,229.200 298.587 C 229.200 306.630,230.072 306.007,218.877 305.972 C 201.846 305.918,200.806 305.614,200.794 300.678 C 200.786 297.500,200.675 297.368,197.741 297.042 C 194.293 296.660,193.600 297.524,193.600 302.205 C 193.600 309.084,196.395 311.564,205.000 312.322 C 212.319 312.966,235.321 312.729,236.199 312.001 C 236.906 311.414,236.875 294.103,236.164 292.250 C 235.931 291.643,233.910 291.320,231.600 291.522 M245.693 292.100 C 245.464 292.383,245.172 296.684,245.020 302.000 C 244.706 313.024,243.979 315.200,240.606 315.200 C 238.039 315.200,237.705 321.610,240.239 322.245 C 243.800 323.139,250.320 318.702,251.768 314.400 C 252.623 311.861,253.114 293.735,252.366 292.337 C 251.883 291.434,246.391 291.238,245.693 292.100 M287.575 298.723 C 289.179 300.062,289.506 302.662,288.302 304.501 C 286.351 307.478,280.000 306.583,280.000 303.331 C 280.000 298.986,284.564 296.209,287.575 298.723 M128.354 315.947 C 124.939 318.643,126.838 322.877,131.159 322.204 C 133.274 321.874,134.587 321.878,137.413 322.221 C 139.234 322.442,139.529 322.362,140.513 321.378 C 142.977 318.914,140.925 314.844,137.490 315.383 C 135.214 315.740,133.358 315.747,131.200 315.406 C 129.712 315.171,129.219 315.265,128.354 315.947 M157.600 341.053 C 157.270 341.190,156.595 341.670,156.100 342.121 L 155.200 342.939 155.200 360.408 C 155.200 380.104,155.079 379.360,158.271 379.360 C 160.845 379.360,161.238 378.377,161.175 372.088 C 161.108 365.414,161.379 364.930,164.934 365.374 C 167.569 365.704,167.522 365.653,169.383 370.171 C 172.428 377.559,173.640 379.200,176.054 379.200 C 179.275 379.200,179.562 376.819,176.948 371.775 C 175.929 369.809,174.866 367.750,174.586 367.200 C 173.387 364.844,173.487 363.916,175.156 361.899 C 180.975 354.869,179.540 345.616,172.114 342.284 C 169.768 341.231,159.311 340.344,157.600 341.053 M185.743 341.171 C 181.693 342.927,183.249 347.200,187.938 347.200 C 192.448 347.200,192.200 346.264,192.200 363.278 L 192.200 377.668 193.365 378.671 C 194.718 379.835,196.458 379.720,197.799 378.379 C 198.571 377.607,198.600 377.052,198.600 363.153 L 198.600 348.729 199.544 347.965 C 200.254 347.390,201.124 347.200,203.044 347.200 C 207.029 347.200,208.733 344.380,206.190 341.991 C 205.096 340.963,187.820 340.270,185.743 341.171 M234.497 341.415 C 227.331 343.670,226.058 346.873,226.147 362.435 C 226.213 374.017,227.378 376.721,233.270 378.971 C 235.986 380.009,245.004 379.759,245.833 378.624 C 248.144 375.458,245.852 373.217,240.000 372.922 C 232.132 372.526,232.238 372.701,232.275 360.060 C 232.312 347.771,232.426 347.598,240.733 347.211 C 246.193 346.957,247.700 345.576,245.995 342.391 C 245.164 340.838,238.207 340.247,234.497 341.415 M252.182 341.714 L 251.052 342.686 250.931 356.643 C 250.737 379.015,250.691 378.286,252.355 379.176 C 252.759 379.392,256.676 379.621,261.059 379.685 C 269.903 379.813,270.876 379.586,271.382 377.283 C 272.126 373.893,269.988 372.738,263.134 372.826 C 256.582 372.911,257.185 374.749,257.066 354.313 C 257.003 343.403,256.960 342.787,256.200 342.038 C 254.860 340.719,253.470 340.606,252.182 341.714 M316.986 341.181 C 315.334 341.850,315.308 342.098,315.038 359.800 C 314.752 378.492,314.762 378.592,316.917 379.307 C 318.683 379.893,319.975 379.357,320.642 377.761 C 321.697 375.236,321.602 345.292,320.532 342.955 C 320.090 341.991,318.427 340.655,317.881 340.825 C 317.837 340.839,317.434 340.999,316.986 341.181 M334.000 341.469 C 326.926 344.051,325.665 346.927,325.529 360.800 C 325.420 371.808,325.816 373.592,329.039 376.634 C 332.970 380.345,344.544 380.978,345.751 377.548 C 346.867 374.374,344.925 373.018,339.226 372.992 C 332.237 372.960,332.159 372.831,331.789 360.743 C 331.403 348.098,331.660 347.641,339.400 347.230 C 345.010 346.932,345.682 346.581,345.498 344.040 C 345.293 341.195,338.754 339.733,334.000 341.469 M69.800 341.694 C 65.146 343.367,62.723 346.748,62.697 351.609 C 62.668 356.885,63.617 357.981,71.886 362.218 C 81.449 367.119,83.187 370.192,77.854 372.774 C 75.804 373.766,73.402 373.388,69.136 371.402 C 65.553 369.734,63.200 370.278,63.200 372.775 C 63.200 374.516,64.684 375.993,67.913 377.464 C 79.447 382.720,88.014 376.992,85.731 365.550 C 85.438 364.081,81.804 360.238,80.262 359.765 C 77.608 358.952,69.864 354.137,69.382 353.000 C 67.536 348.647,71.584 346.764,78.877 348.582 C 83.210 349.662,85.502 348.307,84.488 345.264 C 83.537 342.412,74.150 340.131,69.800 341.694 M92.182 342.182 C 91.262 343.102,90.762 347.918,91.122 352.400 C 91.149 352.730,91.194 358.443,91.223 365.095 C 91.284 378.809,91.367 379.200,94.229 379.200 C 97.048 379.200,97.200 378.689,97.200 369.174 C 97.200 358.779,97.934 356.979,100.657 360.700 C 104.218 365.566,105.778 365.671,108.581 361.231 C 111.606 356.438,112.400 358.009,112.400 368.784 C 112.400 378.491,112.515 378.949,115.073 379.443 C 116.085 379.639,116.544 379.492,117.307 378.729 L 118.268 377.768 118.521 361.277 C 118.779 344.543,118.710 343.448,117.310 341.901 C 115.496 339.897,113.723 341.321,109.430 348.230 C 104.833 355.629,104.433 355.786,101.909 351.188 C 96.662 341.631,94.622 339.742,92.182 342.182 M134.670 342.390 C 134.119 343.044,133.461 344.259,133.207 345.090 C 132.952 345.920,132.601 346.960,132.426 347.400 C 131.620 349.423,129.040 357.603,128.402 360.159 C 128.013 361.722,126.684 365.880,125.450 369.400 C 122.984 376.431,122.812 377.525,124.005 378.605 C 126.218 380.607,128.574 378.995,129.967 374.526 C 130.433 373.027,130.975 371.547,131.170 371.238 C 131.938 370.019,140.702 369.957,142.152 371.160 C 142.711 371.624,143.547 373.715,144.365 376.698 C 145.098 379.370,147.394 380.306,149.382 378.743 C 150.845 377.592,150.659 376.238,148.019 368.800 C 145.683 362.218,144.046 357.184,142.372 351.431 C 139.461 341.428,137.458 339.076,134.670 342.390 M276.891 342.175 C 276.047 343.248,275.176 374.741,275.917 377.400 C 276.550 379.671,280.560 380.262,281.711 378.253 C 282.841 376.282,282.036 342.920,280.835 341.948 C 279.528 340.890,277.825 340.988,276.891 342.175 M287.675 342.016 C 287.018 342.628,286.797 343.301,286.789 344.716 C 286.784 345.752,286.674 353.563,286.545 362.074 L 286.312 377.548 287.385 378.622 C 288.274 379.510,288.701 379.656,289.865 379.467 C 292.947 378.967,293.352 377.483,292.995 368.007 C 292.720 360.717,292.999 359.200,294.518 359.706 C 295.019 359.873,294.893 359.646,298.010 366.000 C 299.359 368.750,300.961 371.810,301.571 372.800 C 302.180 373.790,303.163 375.454,303.755 376.498 C 305.929 380.333,309.668 380.425,310.563 376.666 C 311.354 373.340,310.294 343.058,309.353 342.117 C 308.163 340.926,306.612 340.952,305.382 342.182 C 304.403 343.160,304.400 343.192,304.400 351.349 C 304.400 360.145,304.314 360.800,303.160 360.800 C 302.435 360.800,300.000 357.928,300.000 357.074 C 300.000 356.850,299.212 355.392,298.249 353.834 C 297.287 352.275,295.567 349.201,294.428 347.003 C 291.383 341.126,289.848 339.992,287.675 342.016 M168.293 347.805 C 175.683 350.000,173.669 359.200,165.798 359.200 C 161.252 359.200,161.200 359.135,161.200 353.460 C 161.200 346.984,162.374 346.048,168.293 347.805 M138.493 358.840 C 140.546 361.600,139.689 364.800,136.897 364.800 C 134.418 364.800,133.869 364.212,134.177 361.890 C 134.691 358.017,136.782 356.539,138.493 358.840 " stroke="none" fill="#14a6b8" fill-rule="evenodd"></path><path id="path1" d="M204.449 81.628 C 171.276 86.593,145.916 118.377,147.821 152.600 C 147.968 155.240,148.230 158.120,148.404 159.000 C 148.577 159.880,149.023 162.130,149.393 164.000 C 152.596 180.150,161.643 194.079,175.770 204.611 C 177.679 206.035,179.294 207.200,179.357 207.200 C 179.420 207.200,181.065 208.093,183.012 209.184 C 201.859 219.749,229.309 219.577,247.079 208.781 C 248.510 207.912,249.776 207.200,249.890 207.200 C 250.142 207.200,254.925 203.807,255.671 203.099 C 255.962 202.823,257.433 201.608,258.940 200.398 C 262.768 197.327,263.735 194.752,261.398 193.855 C 260.003 193.319,259.162 193.684,255.537 196.395 C 226.898 217.810,188.593 205.440,176.286 170.800 C 175.934 169.810,175.370 168.244,175.032 167.319 C 173.500 163.129,171.972 151.884,171.985 144.890 C 172.020 125.270,178.394 109.545,190.400 99.454 C 210.225 82.791,232.112 83.992,239.492 102.148 C 240.785 105.329,240.654 114.351,239.196 122.479 C 237.878 129.828,238.637 131.058,244.293 130.738 C 255.260 130.117,267.211 116.060,265.132 106.227 C 263.212 97.153,243.622 84.316,228.200 82.025 C 226.440 81.764,223.905 81.381,222.567 81.175 C 218.774 80.590,209.898 80.812,204.449 81.628 M121.922 140.794 C 121.328 140.973,120.043 141.694,119.066 142.396 L 117.288 143.672 110.824 143.897 C 102.717 144.178,103.200 143.698,103.200 151.470 C 103.200 159.394,103.692 160.131,108.345 159.174 C 112.110 158.400,111.944 158.699,111.719 153.108 C 111.478 147.137,111.658 146.761,114.870 146.494 C 116.568 146.353,117.434 146.503,118.722 147.160 C 122.860 149.271,130.807 149.176,132.700 146.993 C 136.346 142.789,129.109 138.626,121.922 140.794 M285.733 140.839 C 281.776 141.985,281.431 146.645,285.193 148.150 C 288.029 149.285,294.099 148.798,297.472 147.165 C 302.595 144.685,304.800 146.506,304.800 153.219 L 304.800 158.313 306.450 158.974 C 311.590 161.030,313.200 159.234,313.200 151.446 C 313.200 143.596,313.633 144.000,305.215 144.000 L 299.202 144.000 297.631 142.581 C 295.299 140.474,289.784 139.666,285.733 140.839 " stroke="none" fill="#dd9d10" fill-rule="evenodd"></path><path id="path2" d="M0.000 200.000 L 0.000 400.000 200.000 400.000 L 400.000 400.000 400.000 200.000 L 400.000 0.000 200.000 0.000 L 0.000 0.000 0.000 200.000 M223.800 42.759 C 253.240 47.318,278.679 63.137,295.265 87.200 C 304.573 100.705,313.932 124.407,311.336 127.905 C 308.742 131.401,302.915 129.884,302.193 125.523 C 302.036 124.575,301.217 121.540,300.372 118.778 C 292.911 94.380,276.752 74.394,254.800 62.414 C 246.247 57.747,243.100 56.466,233.800 53.865 C 186.866 40.743,137.582 64.974,119.175 110.222 C 117.145 115.214,116.751 116.435,115.044 123.029 C 113.534 128.859,112.743 129.791,109.342 129.742 C 104.512 129.672,103.757 127.112,106.157 118.945 C 118.865 75.701,155.070 45.828,199.600 41.845 C 204.226 41.431,218.774 41.981,223.800 42.759 M226.819 81.203 C 241.749 83.458,259.755 93.591,264.599 102.463 C 271.299 114.734,252.239 136.397,239.485 131.005 C 237.490 130.162,237.268 128.116,238.472 121.669 C 239.139 118.098,239.351 115.400,239.372 110.200 L 239.400 103.400 237.847 100.317 C 234.739 94.143,228.620 89.598,222.166 88.668 C 218.997 88.211,210.776 88.772,209.333 89.544 C 208.930 89.759,207.430 90.342,206.000 90.839 C 180.317 99.758,168.061 128.330,174.959 163.200 C 177.367 175.368,188.090 192.115,197.066 197.726 C 207.089 203.990,213.820 205.995,224.848 205.998 C 237.251 206.002,244.909 203.176,257.959 193.779 C 261.174 191.464,264.999 194.472,262.895 197.661 C 261.505 199.769,252.627 206.577,247.800 209.237 C 213.199 228.303,170.242 214.527,153.515 179.000 C 145.648 162.292,144.812 144.067,151.046 125.245 C 153.540 117.718,161.125 106.031,167.460 99.956 C 184.073 84.026,203.946 77.747,226.819 81.203 M216.167 94.243 C 217.541 94.770,216.841 96.170,214.242 98.093 C 207.794 102.866,205.624 110.856,208.905 117.744 C 212.166 124.590,219.041 129.674,243.000 142.957 C 261.797 153.377,268.777 171.496,259.752 186.442 C 245.657 209.785,200.954 208.206,192.826 184.077 C 190.477 177.106,192.762 166.140,197.272 162.736 C 203.765 157.834,209.017 161.229,210.985 171.599 C 213.565 185.194,213.402 184.746,217.343 189.036 C 231.897 204.879,250.459 190.230,240.704 170.600 C 239.080 167.332,232.912 160.800,231.450 160.800 C 231.320 160.800,228.555 159.221,225.306 157.290 C 222.058 155.360,216.970 152.634,214.000 151.231 C 207.157 148.001,198.000 141.322,198.000 139.561 C 198.000 139.378,197.482 138.637,196.849 137.914 C 190.996 131.233,189.113 118.356,192.827 110.415 C 196.789 101.944,210.849 92.202,216.167 94.243 M131.876 140.534 C 135.832 142.586,135.065 147.950,130.638 149.189 C 127.566 150.050,121.783 149.589,119.290 148.285 C 116.898 147.035,114.032 146.826,113.029 147.829 C 112.202 148.655,112.163 156.275,112.963 160.457 C 113.273 162.076,113.741 164.716,114.004 166.324 C 115.687 176.633,123.648 194.836,130.201 203.360 C 154.239 234.628,188.957 248.421,226.529 241.629 C 264.231 234.814,297.103 201.698,302.790 164.800 C 303.045 163.150,303.421 161.149,303.626 160.354 C 304.390 157.398,304.097 148.897,303.200 148.000 C 302.158 146.958,299.594 146.944,297.654 147.968 C 289.578 152.233,278.805 148.390,282.384 142.519 C 284.677 138.759,295.752 138.520,298.150 142.180 L 298.818 143.200 305.313 143.200 C 311.743 143.200,311.819 143.210,312.922 144.233 L 314.037 145.266 313.869 151.733 C 313.543 164.354,309.526 181.051,304.380 191.177 C 303.731 192.454,303.200 193.646,303.200 193.825 C 303.200 194.005,302.480 195.378,301.600 196.876 C 300.720 198.374,299.235 200.901,298.300 202.491 C 297.365 204.082,295.935 206.287,295.122 207.391 C 294.309 208.496,293.139 210.108,292.522 210.973 C 278.589 230.507,251.997 247.049,228.206 250.981 C 226.442 251.272,223.560 251.756,221.800 252.055 C 208.785 254.270,187.190 251.951,172.699 246.781 C 143.329 236.304,118.257 211.248,108.670 182.792 C 103.175 166.478,100.562 148.105,103.208 144.389 L 104.016 143.254 110.508 143.127 C 116.953 143.001,117.011 142.992,118.499 141.853 C 121.569 139.505,128.562 138.815,131.876 140.534 M104.137 276.495 C 104.820 277.316,104.856 278.013,104.631 286.190 C 104.498 291.035,104.527 297.160,104.695 299.800 L 105.000 304.600 107.730 304.951 C 112.298 305.537,112.278 305.564,112.490 298.529 C 112.728 290.671,112.735 290.659,117.251 290.696 C 121.732 290.734,122.000 291.178,122.000 298.570 C 122.000 304.827,121.949 304.742,125.906 305.073 C 129.804 305.400,129.998 305.076,130.005 298.211 C 130.013 290.586,130.443 290.026,135.722 290.752 C 139.273 291.241,139.378 291.447,139.529 298.188 C 139.678 304.815,139.593 304.659,143.217 305.014 C 147.588 305.443,147.321 306.406,147.233 290.516 C 147.143 274.414,146.778 275.600,151.829 275.600 C 157.152 275.600,156.800 274.525,156.800 290.776 C 156.800 306.584,156.119 304.946,162.768 305.140 C 172.730 305.432,173.623 303.289,165.842 297.760 C 161.680 294.802,161.566 294.055,164.568 289.400 C 165.277 288.300,167.105 285.173,168.629 282.451 C 172.847 274.917,173.135 274.722,176.799 276.926 C 179.997 278.850,180.149 279.641,178.015 283.273 C 172.710 292.299,172.844 291.660,175.622 294.700 C 180.825 300.393,181.185 306.903,176.512 310.775 C 173.871 312.963,171.789 313.310,163.070 313.012 C 158.852 312.868,154.230 312.783,152.800 312.823 C 151.370 312.864,147.635 312.892,144.500 312.886 C 137.953 312.873,135.776 312.873,127.900 312.881 C 124.765 312.884,120.760 312.880,119.000 312.870 C 117.240 312.861,113.280 312.863,110.200 312.875 C 107.120 312.887,103.430 312.873,102.000 312.845 C 100.570 312.816,93.446 312.894,86.170 313.016 C 64.701 313.379,62.000 312.146,62.000 301.983 C 62.000 295.954,62.127 295.765,66.069 295.902 C 69.865 296.033,70.600 296.740,70.270 299.939 C 69.986 302.693,70.426 303.783,72.071 304.399 C 73.795 305.044,93.525 305.432,94.400 304.837 C 94.907 304.493,95.031 302.274,95.200 290.448 C 95.310 282.757,95.533 276.333,95.696 276.170 C 96.936 274.932,103.031 275.167,104.137 276.495 M265.500 276.098 C 265.882 276.404,266.000 279.670,266.000 289.960 C 266.000 304.893,266.049 305.200,268.449 305.200 C 270.417 305.200,271.052 304.575,272.411 301.308 C 276.116 292.397,282.062 288.739,289.354 290.884 C 293.174 292.008,297.200 297.815,297.200 302.201 C 297.200 304.612,297.931 304.955,303.114 304.980 C 308.074 305.004,307.986 305.091,307.994 300.162 C 308.002 295.361,308.298 295.056,312.761 295.259 C 316.832 295.444,316.967 295.590,317.139 299.993 C 317.295 303.983,317.614 304.522,320.078 304.963 C 322.128 305.330,322.400 304.637,322.400 299.055 C 322.400 293.377,322.521 293.200,326.403 293.200 C 331.373 293.200,331.994 294.001,331.998 300.420 C 332.000 304.365,332.262 304.800,334.633 304.800 C 336.753 304.800,336.787 304.682,336.795 297.323 C 336.801 290.328,338.554 288.822,344.340 290.839 L 345.600 291.278 345.620 295.339 C 345.630 297.573,345.675 302.207,345.720 305.638 C 345.826 313.906,346.380 313.356,338.210 313.090 C 334.326 312.964,331.292 312.675,330.512 312.358 C 329.397 311.904,328.948 311.933,327.179 312.569 C 324.850 313.406,318.429 313.289,316.148 312.367 C 315.091 311.940,314.551 311.969,312.696 312.552 C 309.635 313.515,299.939 313.530,296.800 312.576 C 293.897 311.694,292.668 311.724,289.838 312.747 C 286.466 313.965,281.474 313.645,278.431 312.016 C 277.670 311.609,277.051 311.676,274.760 312.413 C 267.537 314.735,260.314 313.035,257.917 308.447 L 256.800 306.309 256.800 291.403 C 256.800 279.942,256.916 276.402,257.302 276.082 C 258.358 275.205,264.397 275.217,265.500 276.098 M120.066 279.463 C 121.408 280.749,121.806 282.364,121.220 284.140 C 119.929 288.051,115.324 288.590,113.184 285.081 C 110.441 280.583,116.269 275.826,120.066 279.463 M216.400 278.830 C 216.950 278.843,218.427 278.729,219.683 278.578 C 222.792 278.204,224.400 279.613,224.400 282.711 C 224.400 286.156,222.109 287.712,218.222 286.908 C 217.013 286.657,215.929 286.632,215.526 286.845 C 214.251 287.517,210.979 287.256,209.883 286.394 C 206.205 283.501,208.504 278.072,213.194 278.572 C 214.407 278.702,215.850 278.818,216.400 278.830 M88.628 288.423 C 90.359 289.860,88.926 291.606,86.070 291.542 C 83.078 291.475,81.924 292.769,83.462 294.469 C 83.954 295.013,84.702 295.200,86.382 295.200 C 89.018 295.200,89.600 295.634,89.600 297.600 C 89.600 299.840,89.206 300.000,83.694 300.000 C 76.899 300.000,75.696 298.994,77.530 294.847 C 77.979 293.831,78.450 292.514,78.576 291.919 C 79.291 288.550,85.978 286.224,88.628 288.423 M236.900 291.657 C 237.932 292.883,237.966 311.333,236.938 312.469 C 236.051 313.449,205.655 313.579,201.138 312.622 C 195.215 311.367,193.000 308.525,193.000 302.182 C 193.000 296.576,193.399 296.000,197.278 296.000 C 201.164 296.000,201.600 296.423,201.600 300.200 C 201.600 304.920,202.410 305.165,218.086 305.187 C 229.428 305.203,228.400 305.937,228.400 297.826 C 228.400 290.379,228.541 290.164,233.151 290.562 C 235.541 290.768,236.351 291.005,236.900 291.657 M252.877 291.619 C 253.680 292.583,253.564 311.020,252.739 313.600 C 250.991 319.064,248.263 321.478,242.336 322.805 C 239.487 323.442,238.651 323.019,238.051 320.636 C 237.076 316.765,237.483 315.851,240.866 314.309 C 244.193 312.791,244.170 312.875,244.400 301.411 L 244.600 291.422 245.600 290.890 C 247.136 290.074,251.996 290.560,252.877 291.619 M283.105 299.189 C 281.964 300.087,280.800 302.304,280.800 303.581 C 280.800 305.337,285.345 306.173,287.077 304.736 C 290.306 302.056,286.397 296.599,283.105 299.189 M134.200 314.856 C 134.860 314.848,136.142 314.725,137.048 314.583 C 141.496 313.888,144.130 318.750,141.001 321.879 C 139.663 323.217,139.511 323.266,137.501 323.027 C 134.572 322.678,133.282 322.673,131.166 323.003 C 126.258 323.769,123.934 318.320,127.852 315.228 C 128.839 314.448,129.280 314.360,131.000 314.596 C 132.100 314.748,133.540 314.865,134.200 314.856 M203.358 340.347 C 210.187 341.106,209.781 348.000,202.906 348.000 C 199.410 348.000,199.600 347.157,199.600 362.693 C 199.600 379.433,199.460 380.000,195.315 380.000 C 191.555 380.000,191.013 378.360,191.293 367.813 C 191.410 363.406,191.392 357.190,191.253 354.000 L 191.000 348.200 188.000 347.958 C 183.016 347.556,181.169 344.981,183.625 341.859 C 185.006 340.103,194.563 339.371,203.358 340.347 M344.800 341.172 C 349.146 344.215,346.394 347.931,339.760 347.977 C 332.823 348.026,332.800 348.067,332.800 360.417 L 332.800 370.062 333.969 371.231 C 335.108 372.370,335.243 372.400,339.209 372.400 C 345.610 372.400,348.070 374.375,346.356 378.137 C 345.290 380.475,335.555 381.212,331.523 379.260 C 325.658 376.420,324.689 373.551,324.869 359.560 L 325.000 349.400 326.105 347.149 C 327.909 343.477,330.112 341.769,334.495 340.647 C 337.367 339.912,343.443 340.222,344.800 341.172 M78.257 341.047 C 82.598 341.941,84.051 342.695,84.940 344.514 C 86.698 348.113,83.417 350.907,79.200 349.401 C 74.623 347.766,70.823 348.210,70.035 350.472 C 69.192 352.888,69.752 353.414,77.400 357.388 C 87.601 362.689,90.331 370.004,84.511 376.446 C 78.751 382.821,62.446 380.073,62.253 372.694 C 62.156 369.018,64.776 368.461,70.341 370.973 C 75.618 373.356,79.600 372.679,79.600 369.400 C 79.600 367.637,78.212 366.502,72.329 363.454 C 63.240 358.746,62.371 357.787,62.075 352.136 C 61.625 343.575,68.304 338.998,78.257 341.047 M96.020 341.076 C 96.764 341.515,98.395 343.823,100.682 347.670 C 104.590 354.245,104.763 354.371,106.310 351.760 C 112.965 340.525,115.735 338.348,118.559 342.134 C 119.379 343.233,119.401 343.662,119.450 359.530 C 119.511 379.405,119.398 380.000,115.544 380.000 C 111.841 380.000,111.600 379.318,111.600 368.843 C 111.600 359.517,111.453 359.026,109.506 361.862 C 106.019 366.938,104.169 366.930,100.178 361.820 C 98.170 359.248,98.000 359.827,98.000 369.254 L 98.000 377.662 96.831 378.831 C 95.326 380.335,93.327 380.415,91.722 379.035 L 90.600 378.070 90.488 360.584 C 90.389 345.154,90.450 342.983,91.011 342.127 C 92.138 340.406,94.167 339.981,96.020 341.076 M138.454 341.028 C 139.940 341.797,140.970 344.002,142.926 350.605 C 143.707 353.242,145.827 359.720,147.637 365.000 C 151.398 375.971,151.716 377.969,149.915 379.320 C 147.203 381.354,144.724 379.927,143.163 375.434 C 141.755 371.384,141.811 371.424,137.364 371.261 C 131.798 371.057,131.857 371.025,130.575 374.876 C 128.881 379.962,125.990 381.627,123.382 379.018 C 121.922 377.558,122.102 376.361,125.159 367.236 C 126.677 362.706,129.043 355.490,130.418 351.200 C 133.783 340.702,134.955 339.219,138.454 341.028 M171.138 341.096 C 179.673 343.787,182.267 355.124,175.983 362.280 C 174.348 364.142,174.461 364.908,177.200 370.568 C 179.893 376.131,180.040 377.016,178.564 378.769 C 175.856 381.989,173.407 380.273,169.607 372.494 C 166.717 366.576,166.202 366.000,163.798 366.000 C 162.366 366.000,162.217 366.538,162.000 372.469 C 161.814 377.566,161.734 378.007,160.830 378.969 C 159.485 380.400,156.788 380.424,155.382 379.018 L 154.400 378.036 154.400 360.387 L 154.400 342.738 155.569 341.569 L 156.738 340.400 162.834 340.400 C 167.513 340.400,169.443 340.562,171.138 341.096 M246.031 341.569 C 247.297 342.835,247.542 344.411,246.746 346.159 C 246.118 347.538,245.649 347.668,240.252 347.969 C 232.816 348.383,232.649 348.801,233.142 365.800 C 233.317 371.844,233.612 372.156,239.308 372.312 C 244.436 372.452,245.043 372.589,246.234 373.875 C 247.544 375.288,247.544 377.556,246.233 379.078 L 245.267 380.200 239.533 380.196 C 230.884 380.189,227.082 377.624,225.594 370.790 C 224.825 367.255,225.235 350.280,226.141 348.200 C 228.686 342.353,232.022 340.473,239.931 340.428 L 244.862 340.400 246.031 341.569 M256.678 341.365 L 257.800 342.330 257.915 356.842 C 257.991 366.530,258.174 371.527,258.464 371.877 C 258.780 372.258,260.297 372.400,264.069 372.400 C 270.042 372.400,271.273 372.797,271.984 374.953 C 272.583 376.766,272.176 378.180,270.700 379.423 L 269.487 380.443 260.952 380.322 L 252.416 380.200 251.308 379.090 L 250.200 377.979 250.304 361.090 C 250.361 351.800,250.406 343.786,250.404 343.281 C 250.394 340.731,254.486 339.481,256.678 341.365 M281.100 341.196 C 281.815 341.632,282.418 342.036,282.440 342.094 C 282.832 343.143,282.686 377.611,282.285 378.400 C 281.181 380.577,277.374 380.723,275.827 378.648 C 274.930 377.444,274.977 379.572,275.163 348.869 L 275.200 342.738 276.369 341.569 C 277.760 340.178,279.240 340.062,281.100 341.196 M291.715 341.205 C 292.278 341.648,293.833 344.033,295.171 346.505 C 296.509 348.977,298.009 351.720,298.505 352.600 C 299.000 353.480,300.094 355.425,300.935 356.923 C 303.207 360.968,303.370 360.596,303.600 350.832 L 303.800 342.329 304.922 341.364 C 306.213 340.255,307.543 340.143,309.208 341.004 C 311.307 342.089,311.308 342.097,311.355 360.377 C 311.405 379.291,311.441 379.019,308.724 379.967 C 305.506 381.088,303.892 379.076,296.323 364.500 C 293.791 359.625,293.665 359.853,293.522 369.569 C 293.404 377.690,293.373 377.967,292.472 378.924 C 290.588 380.928,286.999 380.411,285.997 377.992 C 285.518 376.836,285.713 343.612,286.207 342.326 C 286.880 340.572,290.082 339.920,291.715 341.205 M320.005 341.002 C 321.964 342.016,322.061 343.040,321.925 361.291 L 321.800 377.983 320.700 379.082 C 318.517 381.265,314.845 380.123,314.234 377.072 C 314.094 376.372,314.104 368.249,314.255 359.020 L 314.531 342.240 315.524 341.320 C 316.674 340.254,318.330 340.136,320.005 341.002 M162.500 348.443 C 161.732 349.237,161.812 357.346,162.594 357.995 C 163.806 359.001,168.987 358.354,170.376 357.023 C 173.988 353.563,171.459 348.443,165.972 348.107 C 163.862 347.978,162.855 348.075,162.500 348.443 M135.952 359.291 C 134.470 362.059,134.820 364.000,136.800 364.000 C 138.811 364.000,139.264 361.743,137.742 359.300 C 137.035 358.164,136.556 358.162,135.952 359.291 " stroke="none" fill="#fbfbfb" fill-rule="evenodd"></path><path id="path3" d="M199.600 41.845 C 155.070 45.828,118.865 75.701,106.157 118.945 C 103.757 127.112,104.512 129.672,109.342 129.742 C 112.743 129.791,113.534 128.859,115.044 123.029 C 116.751 116.435,117.145 115.214,119.175 110.222 C 137.582 64.974,186.866 40.743,233.800 53.865 C 243.100 56.466,246.247 57.747,254.800 62.414 C 276.752 74.394,292.911 94.380,300.372 118.778 C 301.217 121.540,302.036 124.575,302.193 125.523 C 302.915 129.884,308.742 131.401,311.336 127.905 C 312.532 126.294,311.284 120.856,307.227 110.000 C 293.869 74.261,262.153 48.698,223.800 42.759 C 218.774 41.981,204.226 41.431,199.600 41.845 M223.200 43.370 C 233.244 45.093,237.494 46.199,246.400 49.406 C 259.375 54.078,276.089 65.644,286.060 76.852 C 287.894 78.913,289.495 80.690,289.618 80.800 C 291.467 82.461,302.400 99.388,302.400 100.590 C 302.400 100.662,303.092 102.223,303.938 104.060 C 308.334 113.605,311.694 125.061,310.703 127.127 C 308.917 130.853,304.103 129.510,302.968 124.969 C 295.821 96.378,277.580 72.978,252.708 60.496 C 243.304 55.776,238.340 53.986,228.200 51.655 C 201.849 45.600,169.290 53.066,148.600 69.908 C 135.323 80.716,125.448 93.423,119.620 107.200 C 118.922 108.850,117.923 111.190,117.399 112.400 C 116.418 114.668,116.235 115.295,114.775 121.400 C 112.989 128.869,111.190 130.517,107.001 128.520 C 104.458 127.307,104.556 126.003,107.969 115.733 C 118.956 82.671,144.304 57.101,175.600 47.510 C 177.030 47.071,178.920 46.480,179.800 46.196 C 190.422 42.763,211.617 41.382,223.200 43.370 M211.800 94.539 C 204.481 96.647,195.914 103.815,192.827 110.415 C 189.113 118.356,190.996 131.233,196.849 137.914 C 197.482 138.637,198.000 139.378,198.000 139.561 C 198.000 141.322,207.157 148.001,214.000 151.231 C 216.970 152.634,222.058 155.360,225.306 157.290 C 228.555 159.221,231.320 160.800,231.450 160.800 C 232.912 160.800,239.080 167.332,240.704 170.600 C 250.459 190.230,231.897 204.879,217.343 189.036 C 213.402 184.746,213.565 185.194,210.985 171.599 C 209.252 162.466,205.825 159.254,199.960 161.266 C 190.281 164.587,189.035 183.576,197.887 192.857 C 209.953 205.507,238.270 206.423,252.400 194.621 C 260.634 187.744,263.337 182.317,263.366 172.600 C 263.401 160.584,256.391 150.380,243.000 142.957 C 219.041 129.674,212.166 124.590,208.905 117.744 C 205.624 110.856,207.794 102.866,214.242 98.093 C 218.522 94.926,217.190 92.987,211.800 94.539 M215.765 95.143 C 215.881 95.332,214.624 96.701,212.972 98.186 C 208.069 102.592,205.733 108.371,206.716 113.660 C 208.206 121.673,215.288 128.450,231.200 137.090 C 255.489 150.279,262.539 158.260,262.567 172.600 C 262.581 180.013,261.521 183.269,257.255 188.919 C 255.980 190.608,250.053 196.000,249.472 196.000 C 249.351 196.000,248.386 196.535,247.327 197.188 C 231.458 206.974,203.847 202.285,195.580 188.400 C 187.431 174.715,198.331 153.426,207.867 164.400 C 208.900 165.588,210.015 169.728,211.383 177.452 C 212.777 185.328,214.935 188.972,220.592 193.009 C 232.588 201.569,245.826 193.631,243.636 179.191 C 241.663 166.182,237.340 161.882,215.110 150.819 C 211.211 148.879,206.789 146.378,205.285 145.263 C 191.194 134.817,187.460 117.505,196.690 105.423 C 200.541 100.382,214.390 92.918,215.765 95.143 M111.800 158.799 C 111.935 159.019,112.481 161.680,113.012 164.712 C 118.137 193.965,138.145 220.599,164.834 233.695 C 178.544 240.423,186.461 242.496,203.400 243.794 C 237.162 246.382,272.641 227.760,290.651 198.000 C 296.221 188.796,301.790 175.332,303.017 168.105 C 303.158 167.277,303.617 164.826,304.036 162.657 C 304.926 158.061,304.893 158.400,304.452 158.400 C 304.032 158.400,303.426 160.744,302.795 164.800 C 301.156 175.336,295.079 190.255,288.294 200.400 C 252.425 254.036,175.527 258.114,134.420 208.560 C 129.966 203.190,129.238 202.190,126.586 197.800 C 119.439 185.964,115.247 174.617,113.176 161.500 C 112.832 159.321,112.518 158.400,112.120 158.400 C 111.808 158.400,111.664 158.580,111.800 158.799 M103.072 160.500 C 105.392 180.689,116.213 203.571,130.689 218.897 C 147.720 236.928,166.131 246.805,191.800 251.681 C 197.674 252.796,216.094 253.026,221.800 252.055 C 223.560 251.756,226.442 251.272,228.206 250.981 C 251.997 247.049,278.589 230.507,292.522 210.973 C 293.139 210.108,294.309 208.496,295.122 207.391 C 295.935 206.287,297.365 204.082,298.300 202.491 C 299.235 200.901,300.720 198.374,301.600 196.876 C 302.480 195.378,303.200 194.005,303.200 193.825 C 303.200 193.646,303.731 192.454,304.380 191.177 C 305.664 188.651,308.841 180.156,310.056 176.000 C 311.520 170.996,313.518 159.784,313.033 159.299 C 312.608 158.874,312.456 159.385,311.815 163.408 C 310.031 174.602,305.922 187.517,301.827 194.800 C 301.518 195.350,300.521 197.136,299.612 198.769 C 286.739 221.892,263.558 240.386,238.200 247.765 C 236.220 248.341,234.060 248.979,233.400 249.182 C 232.740 249.385,230.850 249.825,229.200 250.159 C 182.334 259.637,135.028 236.182,113.789 192.937 C 109.193 183.579,102.898 162.443,103.831 159.503 C 103.975 159.050,103.845 158.800,103.465 158.800 C 103.008 158.800,102.920 159.181,103.072 160.500 M97.496 275.562 C 96.668 275.735,95.858 276.008,95.696 276.170 C 95.533 276.333,95.310 282.757,95.200 290.448 C 95.031 302.274,94.907 304.493,94.400 304.837 C 93.525 305.432,73.795 305.044,72.071 304.399 C 70.426 303.783,69.986 302.693,70.270 299.939 C 70.600 296.740,69.865 296.033,66.069 295.902 C 62.127 295.765,62.000 295.954,62.000 301.983 C 62.000 312.146,64.701 313.379,86.170 313.016 C 93.446 312.894,100.570 312.816,102.000 312.845 C 103.430 312.873,107.120 312.887,110.200 312.875 C 113.280 312.863,117.240 312.861,119.000 312.870 C 120.760 312.880,124.765 312.884,127.900 312.881 C 135.776 312.873,137.953 312.873,144.500 312.886 C 147.635 312.892,151.370 312.864,152.800 312.823 C 154.230 312.783,158.852 312.868,163.070 313.012 C 171.789 313.310,173.871 312.963,176.512 310.775 C 181.185 306.903,180.825 300.393,175.622 294.700 C 172.844 291.660,172.710 292.299,178.015 283.273 C 180.149 279.641,179.997 278.850,176.799 276.926 C 173.135 274.722,172.847 274.917,168.629 282.451 C 167.105 285.173,165.277 288.300,164.568 289.400 C 161.566 294.055,161.680 294.802,165.842 297.760 C 173.623 303.289,172.730 305.432,162.768 305.140 C 156.119 304.946,156.800 306.584,156.800 290.776 C 156.800 274.525,157.152 275.600,151.829 275.600 C 146.778 275.600,147.143 274.414,147.233 290.516 C 147.321 306.406,147.588 305.443,143.217 305.014 C 139.593 304.659,139.678 304.815,139.529 298.188 C 139.378 291.447,139.273 291.241,135.722 290.752 C 130.443 290.026,130.013 290.586,130.005 298.211 C 129.998 305.076,129.804 305.400,125.906 305.073 C 121.949 304.742,122.000 304.827,122.000 298.570 C 122.000 291.178,121.732 290.734,117.251 290.696 C 112.735 290.659,112.728 290.671,112.490 298.529 C 112.278 305.564,112.298 305.537,107.730 304.951 L 105.000 304.600 104.695 299.800 C 104.527 297.160,104.498 291.035,104.631 286.190 C 104.933 275.201,104.234 274.159,97.496 275.562 M259.202 275.489 C 256.699 275.805,256.800 275.137,256.800 291.403 L 256.800 306.309 257.917 308.447 C 260.314 313.035,267.537 314.735,274.760 312.413 C 277.051 311.676,277.670 311.609,278.431 312.016 C 281.474 313.645,286.466 313.965,289.838 312.747 C 292.668 311.724,293.897 311.694,296.800 312.576 C 299.939 313.530,309.635 313.515,312.696 312.552 C 314.551 311.969,315.091 311.940,316.148 312.367 C 318.429 313.289,324.850 313.406,327.179 312.569 C 328.948 311.933,329.397 311.904,330.512 312.358 C 331.292 312.675,334.326 312.964,338.210 313.090 C 346.380 313.356,345.826 313.906,345.720 305.638 C 345.675 302.207,345.630 297.573,345.620 295.339 L 345.600 291.278 344.340 290.839 C 338.554 288.822,336.801 290.328,336.795 297.323 C 336.787 304.682,336.753 304.800,334.633 304.800 C 332.262 304.800,332.000 304.365,331.998 300.420 C 331.994 294.001,331.373 293.200,326.403 293.200 C 322.521 293.200,322.400 293.377,322.400 299.055 C 322.400 304.637,322.128 305.330,320.078 304.963 C 317.614 304.522,317.295 303.983,317.139 299.993 C 316.967 295.590,316.832 295.444,312.761 295.259 C 308.298 295.056,308.002 295.361,307.994 300.162 C 307.986 305.091,308.074 305.004,303.114 304.980 C 297.931 304.955,297.200 304.612,297.200 302.201 C 297.200 297.815,293.174 292.008,289.354 290.884 C 282.062 288.739,276.116 292.397,272.411 301.308 C 271.052 304.575,270.417 305.200,268.449 305.200 C 266.049 305.200,266.000 304.893,266.000 289.960 C 266.000 279.670,265.882 276.404,265.500 276.098 C 264.891 275.612,261.121 275.247,259.202 275.489 M103.371 276.629 C 103.918 277.175,104.000 279.019,104.000 290.767 C 104.000 306.447,103.694 305.369,108.270 305.817 C 112.138 306.195,112.952 305.471,113.365 301.278 C 113.521 299.696,113.531 298.212,113.387 297.980 C 112.957 297.283,113.637 292.821,114.269 292.188 C 114.661 291.796,115.692 291.600,117.367 291.600 C 121.040 291.600,121.161 291.815,121.172 298.367 C 121.184 305.135,121.334 305.422,125.054 305.821 C 130.272 306.379,131.001 305.398,130.909 297.945 C 130.832 291.743,131.007 291.383,134.028 291.514 C 135.187 291.565,136.691 291.929,137.368 292.324 L 138.600 293.042 138.800 298.755 C 139.030 305.319,139.040 305.338,142.625 305.786 C 148.299 306.495,148.200 306.771,148.200 290.287 C 148.200 274.915,147.922 276.016,151.811 276.006 C 156.260 275.995,156.000 275.077,156.000 290.794 C 156.000 307.430,155.279 306.262,165.347 305.942 C 174.037 305.666,173.934 301.841,165.084 296.198 C 162.954 294.841,162.981 292.643,165.157 290.205 C 165.553 289.762,167.096 287.060,168.586 284.200 C 172.843 276.032,173.136 275.754,175.940 277.215 C 179.472 279.056,179.527 280.172,176.304 284.600 C 171.779 290.815,171.687 291.835,175.296 295.800 C 179.139 300.023,180.035 303.310,178.387 307.141 C 176.471 311.595,173.372 312.597,162.675 312.222 C 158.674 312.081,154.500 311.936,153.400 311.899 C 152.300 311.862,150.215 312.048,148.767 312.313 C 146.728 312.685,145.194 312.687,141.967 312.321 C 139.675 312.061,136.810 311.899,135.600 311.961 C 132.712 312.108,123.395 312.140,119.600 312.015 C 117.950 311.961,114.530 312.047,112.000 312.207 C 108.979 312.398,106.280 312.331,104.137 312.013 C 101.605 311.637,100.360 311.635,98.585 312.003 C 95.484 312.647,74.296 312.654,70.822 312.013 C 64.240 310.797,62.178 307.960,62.690 300.821 C 62.958 297.087,63.178 296.800,65.760 296.800 C 68.983 296.800,69.587 297.441,69.487 300.753 C 69.346 305.405,69.741 305.547,83.609 305.852 C 97.042 306.147,95.727 307.238,96.035 295.536 C 96.164 290.621,96.138 284.717,95.977 282.416 C 95.682 278.200,95.907 276.661,96.874 276.274 C 98.160 275.759,102.753 276.010,103.371 276.629 M264.921 276.808 C 265.391 277.480,265.453 279.839,265.287 290.770 L 265.087 303.924 266.174 305.010 C 268.411 307.247,271.414 306.101,272.788 302.484 C 276.252 293.371,282.347 289.358,289.240 291.652 C 292.277 292.663,296.000 297.712,296.000 300.819 C 296.000 304.838,296.906 305.531,302.566 305.841 C 308.215 306.151,308.797 305.673,308.806 300.718 C 308.814 296.288,308.909 296.173,312.464 296.316 C 316.241 296.468,316.400 296.632,316.400 300.360 C 316.400 303.958,316.929 304.976,319.112 305.582 C 322.544 306.536,323.200 305.486,323.200 299.036 C 323.200 294.227,323.054 294.422,326.720 294.312 C 330.548 294.196,330.639 294.310,330.985 299.643 C 331.331 304.980,331.724 305.600,334.761 305.600 C 337.296 305.600,337.600 304.824,337.600 298.366 C 337.600 291.779,337.694 291.600,341.141 291.600 C 342.871 291.600,344.051 291.787,344.300 292.100 C 344.797 292.723,345.231 310.267,344.779 311.455 C 344.270 312.794,334.244 312.863,330.620 311.553 C 329.494 311.146,328.904 311.184,326.991 311.785 C 324.371 312.609,318.235 312.490,316.282 311.578 C 315.342 311.138,314.738 311.158,312.482 311.705 C 307.074 313.014,299.557 312.868,295.332 311.371 C 293.422 310.695,293.366 310.699,290.476 311.743 C 286.732 313.097,284.293 313.093,280.096 311.730 C 276.814 310.663,276.781 310.661,275.296 311.390 C 269.472 314.246,259.436 311.869,258.087 307.315 C 257.589 305.633,257.297 277.213,257.770 276.448 C 258.307 275.579,264.270 275.879,264.921 276.808 M115.800 278.274 C 114.737 278.551,113.645 279.553,112.959 280.879 C 110.764 285.123,116.383 289.517,119.888 286.298 C 123.417 283.058,120.371 277.080,115.800 278.274 M209.923 279.175 C 205.478 282.671,210.474 289.510,215.526 286.845 C 215.929 286.632,217.013 286.657,218.222 286.908 C 222.109 287.712,224.400 286.156,224.400 282.711 C 224.400 279.613,222.792 278.204,219.683 278.578 C 217.046 278.896,216.215 278.895,213.194 278.572 C 211.338 278.374,210.819 278.470,209.923 279.175 M118.811 279.482 C 121.194 281.124,121.511 283.350,119.631 285.231 C 116.344 288.518,111.193 284.259,114.055 280.621 C 115.493 278.793,117.214 278.381,118.811 279.482 M216.600 279.624 C 217.260 279.628,218.665 279.515,219.722 279.374 C 222.677 278.977,224.500 281.074,223.592 283.825 C 222.953 285.759,221.507 286.554,219.244 286.214 C 217.057 285.885,216.551 285.887,213.372 286.226 C 209.695 286.619,207.755 283.981,209.392 280.816 C 210.157 279.337,210.554 279.191,213.200 279.424 C 214.410 279.530,215.940 279.620,216.600 279.624 M82.200 288.177 C 80.362 288.855,78.908 290.356,78.576 291.919 C 78.450 292.514,77.979 293.831,77.530 294.847 C 75.696 298.994,76.899 300.000,83.694 300.000 C 89.206 300.000,89.600 299.840,89.600 297.600 C 89.600 295.634,89.018 295.200,86.382 295.200 C 84.702 295.200,83.954 295.013,83.462 294.469 C 81.924 292.769,83.078 291.475,86.070 291.542 C 88.374 291.594,89.200 291.134,89.200 289.800 C 89.200 287.918,85.334 287.022,82.200 288.177 M88.025 289.430 C 88.733 290.283,87.824 290.899,86.275 290.616 C 85.656 290.503,84.576 290.650,83.875 290.943 C 79.883 292.612,81.557 295.761,86.721 296.296 C 88.813 296.513,88.840 296.533,88.721 297.758 L 88.600 299.000 83.829 299.000 C 77.446 299.000,77.432 298.984,78.966 293.641 C 80.132 289.576,81.028 288.867,85.051 288.825 C 86.818 288.807,87.648 288.976,88.025 289.430 M229.251 291.149 C 228.461 291.939,228.400 292.418,228.400 297.826 C 228.400 305.937,229.428 305.203,218.086 305.187 C 202.410 305.165,201.600 304.920,201.600 300.200 C 201.600 296.423,201.164 296.000,197.278 296.000 C 193.399 296.000,193.000 296.576,193.000 302.182 C 193.000 308.525,195.215 311.367,201.138 312.622 C 205.655 313.579,236.051 313.449,236.938 312.469 C 237.966 311.333,237.932 292.883,236.900 291.657 C 235.785 290.332,230.424 289.976,229.251 291.149 M245.600 290.890 L 244.600 291.422 244.400 301.411 C 244.170 312.875,244.193 312.791,240.866 314.309 C 237.483 315.851,237.076 316.765,238.051 320.636 C 238.651 323.019,239.487 323.442,242.336 322.805 C 248.263 321.478,250.991 319.064,252.739 313.600 C 253.564 311.020,253.680 292.583,252.877 291.619 C 251.996 290.560,247.136 290.074,245.600 290.890 M236.164 292.250 C 236.875 294.103,236.906 311.414,236.199 312.001 C 235.321 312.729,212.319 312.966,205.000 312.322 C 196.395 311.564,193.600 309.084,193.600 302.205 C 193.600 297.524,194.293 296.660,197.741 297.042 C 200.675 297.368,200.786 297.500,200.794 300.678 C 200.806 305.614,201.846 305.918,218.877 305.972 C 230.072 306.007,229.200 306.630,229.200 298.587 C 229.200 294.695,229.355 292.751,229.700 292.299 C 230.544 291.194,235.744 291.155,236.164 292.250 M252.366 292.337 C 253.114 293.735,252.623 311.861,251.768 314.400 C 250.320 318.702,243.800 323.139,240.239 322.245 C 237.705 321.610,238.039 315.200,240.606 315.200 C 243.979 315.200,244.706 313.024,245.020 302.000 C 245.172 296.684,245.464 292.383,245.693 292.100 C 246.391 291.238,251.883 291.434,252.366 292.337 M282.492 298.640 C 280.270 300.391,279.155 304.013,280.500 305.110 C 282.642 306.856,286.981 306.517,288.302 304.501 C 290.971 300.426,286.259 295.671,282.492 298.640 M286.680 299.001 C 288.470 300.255,288.688 303.399,287.077 304.736 C 285.345 306.173,280.800 305.337,280.800 303.581 C 280.800 300.204,284.398 297.402,286.680 299.001 M127.852 315.228 C 123.934 318.320,126.258 323.769,131.166 323.003 C 133.282 322.673,134.572 322.678,137.501 323.027 C 139.511 323.266,139.663 323.217,141.001 321.879 C 144.130 318.750,141.496 313.888,137.048 314.583 C 134.862 314.925,133.410 314.928,131.000 314.596 C 129.280 314.360,128.839 314.448,127.852 315.228 M134.400 315.669 C 135.170 315.658,136.560 315.529,137.490 315.383 C 140.925 314.844,142.977 318.914,140.513 321.378 C 139.529 322.362,139.234 322.442,137.413 322.221 C 134.587 321.878,133.274 321.874,131.159 322.204 C 126.838 322.877,124.939 318.643,128.354 315.947 C 129.219 315.265,129.712 315.171,131.200 315.406 C 132.190 315.563,133.630 315.681,134.400 315.669 M185.725 340.441 C 183.286 341.147,182.159 343.755,183.254 346.159 C 183.845 347.457,184.403 347.668,188.000 347.958 L 191.000 348.200 191.253 354.000 C 191.392 357.190,191.410 363.406,191.293 367.813 C 191.013 378.360,191.555 380.000,195.315 380.000 C 199.460 380.000,199.600 379.433,199.600 362.693 C 199.600 347.157,199.410 348.000,202.906 348.000 C 209.781 348.000,210.187 341.106,203.358 340.347 C 199.556 339.925,187.282 339.990,185.725 340.441 M334.495 340.647 C 330.112 341.769,327.909 343.477,326.105 347.149 L 325.000 349.400 324.869 359.560 C 324.689 373.551,325.658 376.420,331.523 379.260 C 335.555 381.212,345.290 380.475,346.356 378.137 C 348.070 374.375,345.610 372.400,339.209 372.400 C 335.243 372.400,335.108 372.370,333.969 371.231 L 332.800 370.062 332.800 360.417 C 332.800 348.067,332.823 348.026,339.760 347.977 C 345.337 347.939,347.828 346.004,346.303 342.896 C 345.111 340.468,339.425 339.386,334.495 340.647 M69.000 341.213 C 64.366 343.002,61.807 347.037,62.075 352.136 C 62.371 357.787,63.240 358.746,72.329 363.454 C 78.212 366.502,79.600 367.637,79.600 369.400 C 79.600 372.679,75.618 373.356,70.341 370.973 C 65.987 369.007,64.833 368.866,63.376 370.119 C 57.134 375.488,74.156 383.436,81.861 378.750 C 85.425 376.582,87.448 372.524,87.104 368.233 C 86.715 363.395,84.765 361.215,77.400 357.388 C 69.752 353.414,69.192 352.888,70.035 350.472 C 70.823 348.210,74.623 347.766,79.200 349.401 C 83.417 350.907,86.698 348.113,84.940 344.514 C 83.347 341.254,73.942 339.307,69.000 341.213 M92.523 340.804 C 90.363 341.674,90.366 341.649,90.488 360.584 L 90.600 378.070 91.722 379.035 C 93.327 380.415,95.326 380.335,96.831 378.831 L 98.000 377.662 98.000 369.254 C 98.000 359.827,98.170 359.248,100.178 361.820 C 104.169 366.930,106.019 366.938,109.506 361.862 C 111.453 359.026,111.600 359.517,111.600 368.843 C 111.600 379.318,111.841 380.000,115.544 380.000 C 119.398 380.000,119.511 379.405,119.450 359.530 C 119.401 343.662,119.379 343.233,118.559 342.134 C 115.735 338.348,112.965 340.525,106.310 351.760 C 104.763 354.371,104.590 354.245,100.682 347.670 C 96.537 340.696,95.324 339.676,92.523 340.804 M135.349 340.794 C 133.841 341.403,132.967 343.250,130.418 351.200 C 129.043 355.490,126.677 362.706,125.159 367.236 C 122.102 376.361,121.922 377.558,123.382 379.018 C 125.990 381.627,128.881 379.962,130.575 374.876 C 131.857 371.025,131.798 371.057,137.364 371.261 C 141.811 371.424,141.755 371.384,143.163 375.434 C 144.724 379.927,147.203 381.354,149.915 379.320 C 151.716 377.969,151.398 375.971,147.637 365.000 C 145.827 359.720,143.707 353.242,142.926 350.605 C 140.231 341.505,138.652 339.461,135.349 340.794 M155.569 341.569 L 154.400 342.738 154.400 360.387 L 154.400 378.036 155.382 379.018 C 156.788 380.424,159.485 380.400,160.830 378.969 C 161.734 378.007,161.814 377.566,162.000 372.469 C 162.217 366.538,162.366 366.000,163.798 366.000 C 166.202 366.000,166.717 366.576,169.607 372.494 C 173.407 380.273,175.856 381.989,178.564 378.769 C 180.040 377.016,179.893 376.131,177.200 370.568 C 174.461 364.908,174.348 364.142,175.983 362.280 C 180.919 356.659,180.672 348.488,175.420 343.688 C 172.400 340.928,170.380 340.400,162.834 340.400 L 156.738 340.400 155.569 341.569 M233.556 340.988 C 230.015 342.291,227.757 344.488,226.141 348.200 C 225.235 350.280,224.825 367.255,225.594 370.790 C 227.082 377.624,230.884 380.189,239.533 380.196 L 245.267 380.200 246.233 379.078 C 247.544 377.556,247.544 375.288,246.234 373.875 C 245.043 372.589,244.436 372.452,239.308 372.312 C 233.612 372.156,233.317 371.844,233.142 365.800 C 232.649 348.801,232.816 348.383,240.252 347.969 C 245.649 347.668,246.118 347.538,246.746 346.159 C 247.542 344.411,247.297 342.835,246.031 341.569 L 244.862 340.400 239.931 340.428 C 236.890 340.446,234.446 340.660,233.556 340.988 M251.458 341.381 C 250.876 341.920,250.402 342.775,250.404 343.281 C 250.406 343.786,250.361 351.800,250.304 361.090 L 250.200 377.979 251.308 379.090 L 252.416 380.200 260.952 380.322 L 269.487 380.443 270.700 379.423 C 272.176 378.180,272.583 376.766,271.984 374.953 C 271.273 372.797,270.042 372.400,264.069 372.400 C 260.297 372.400,258.780 372.258,258.464 371.877 C 258.174 371.527,257.991 366.530,257.915 356.842 L 257.800 342.330 256.678 341.365 C 255.148 340.049,252.888 340.056,251.458 341.381 M276.369 341.569 L 275.200 342.738 275.163 348.869 C 274.977 379.572,274.930 377.444,275.827 378.648 C 277.374 380.723,281.181 380.577,282.285 378.400 C 282.686 377.611,282.832 343.143,282.440 342.094 C 281.809 340.409,277.870 340.069,276.369 341.569 M287.509 341.098 C 285.947 342.066,286.016 341.326,285.757 359.860 C 285.497 378.507,285.515 378.689,287.794 379.770 C 292.206 381.864,293.373 379.786,293.522 369.569 C 293.665 359.853,293.791 359.625,296.323 364.500 C 303.892 379.076,305.506 381.088,308.724 379.967 C 311.441 379.019,311.405 379.291,311.355 360.377 C 311.308 342.097,311.307 342.089,309.208 341.004 C 307.543 340.143,306.213 340.255,304.922 341.364 L 303.800 342.329 303.600 350.832 C 303.370 360.596,303.207 360.968,300.935 356.923 C 300.094 355.425,299.000 353.480,298.505 352.600 C 298.009 351.720,296.509 348.977,295.171 346.505 C 291.916 340.490,290.314 339.359,287.509 341.098 M315.524 341.320 L 314.531 342.240 314.255 359.020 C 314.104 368.249,314.094 376.372,314.234 377.072 C 314.845 380.123,318.517 381.265,320.700 379.082 L 321.800 377.983 321.925 361.291 C 322.010 349.968,321.908 344.118,321.609 343.102 C 320.848 340.513,317.464 339.522,315.524 341.320 M172.114 342.284 C 179.540 345.616,180.975 354.869,175.156 361.899 C 173.487 363.916,173.387 364.844,174.586 367.200 C 174.866 367.750,175.929 369.809,176.948 371.775 C 179.562 376.819,179.275 379.200,176.054 379.200 C 173.640 379.200,172.428 377.559,169.383 370.171 C 167.522 365.653,167.569 365.704,164.934 365.374 C 161.379 364.930,161.108 365.414,161.175 372.088 C 161.238 378.377,160.845 379.360,158.271 379.360 C 155.079 379.360,155.200 380.104,155.200 360.408 L 155.200 342.939 156.100 342.121 C 157.509 340.839,157.849 340.791,163.989 341.020 C 169.104 341.210,170.050 341.357,172.114 342.284 M206.190 341.991 C 208.733 344.380,207.029 347.200,203.044 347.200 C 201.124 347.200,200.254 347.390,199.544 347.965 L 198.600 348.729 198.600 363.153 C 198.600 377.052,198.571 377.607,197.799 378.379 C 196.458 379.720,194.718 379.835,193.365 378.671 L 192.200 377.668 192.200 363.278 C 192.200 346.264,192.448 347.200,187.938 347.200 C 183.249 347.200,181.693 342.927,185.743 341.171 C 187.820 340.270,205.096 340.963,206.190 341.991 M244.095 341.220 C 245.744 341.678,246.400 342.553,246.400 344.297 C 246.400 346.632,245.726 346.979,240.733 347.211 C 232.426 347.598,232.312 347.771,232.275 360.060 C 232.238 372.701,232.132 372.526,240.000 372.922 C 245.210 373.185,246.400 373.859,246.400 376.546 C 246.400 379.122,245.853 379.385,240.179 379.534 C 233.048 379.721,229.574 378.101,227.066 373.418 C 226.128 371.665,225.682 356.391,226.400 350.597 C 227.277 343.532,235.923 338.950,244.095 341.220 M256.200 342.038 C 256.960 342.787,257.003 343.403,257.066 354.313 C 257.185 374.749,256.582 372.911,263.134 372.826 C 269.988 372.738,272.126 373.893,271.382 377.283 C 270.876 379.586,269.903 379.813,261.059 379.685 C 256.676 379.621,252.759 379.392,252.355 379.176 C 250.691 378.286,250.737 379.015,250.931 356.643 L 251.052 342.686 252.182 341.714 C 253.470 340.606,254.860 340.719,256.200 342.038 M318.962 341.255 C 320.820 342.102,321.090 343.486,321.251 353.000 C 321.677 378.122,321.245 380.743,316.917 379.307 C 314.762 378.592,314.752 378.492,315.038 359.800 C 315.323 341.072,315.237 341.651,317.881 340.825 C 317.926 340.811,318.412 341.005,318.962 341.255 M344.332 341.886 C 345.593 342.823,345.924 344.975,344.994 346.183 C 344.475 346.856,343.695 347.002,339.400 347.230 C 331.660 347.641,331.403 348.098,331.789 360.743 C 332.159 372.831,332.237 372.960,339.226 372.992 C 344.925 373.018,346.867 374.374,345.751 377.548 C 344.544 380.978,332.970 380.345,329.039 376.634 C 325.816 373.592,325.420 371.808,325.529 360.800 C 325.665 346.927,326.926 344.051,334.000 341.469 C 336.591 340.523,342.838 340.775,344.332 341.886 M79.036 342.004 C 83.728 343.196,85.377 344.831,84.421 347.344 C 83.729 349.166,82.406 349.461,78.877 348.582 C 71.584 346.764,67.536 348.647,69.382 353.000 C 69.864 354.137,77.608 358.952,80.262 359.765 C 81.804 360.238,85.438 364.081,85.731 365.550 C 88.014 376.992,79.447 382.720,67.913 377.464 C 64.684 375.993,63.200 374.516,63.200 372.775 C 63.200 370.278,65.553 369.734,69.136 371.402 C 73.402 373.388,75.804 373.766,77.854 372.774 C 83.187 370.192,81.449 367.119,71.886 362.218 C 63.617 357.981,62.668 356.885,62.697 351.609 C 62.741 343.488,69.422 339.561,79.036 342.004 M95.603 341.602 C 96.302 341.976,99.623 347.024,101.909 351.188 C 104.433 355.786,104.833 355.629,109.430 348.230 C 113.723 341.321,115.496 339.897,117.310 341.901 C 118.710 343.448,118.779 344.543,118.521 361.277 L 118.268 377.768 117.307 378.729 C 116.544 379.492,116.085 379.639,115.073 379.443 C 112.515 378.949,112.400 378.491,112.400 368.784 C 112.400 358.009,111.606 356.438,108.581 361.231 C 105.778 365.671,104.218 365.566,100.657 360.700 C 97.934 356.979,97.200 358.779,97.200 369.174 C 97.200 378.689,97.048 379.200,94.229 379.200 C 91.367 379.200,91.284 378.809,91.223 365.095 C 91.194 358.443,91.149 352.730,91.122 352.400 C 90.441 343.912,92.164 339.761,95.603 341.602 M138.169 341.658 C 139.304 342.176,140.464 344.873,142.372 351.431 C 144.046 357.184,145.683 362.218,148.019 368.800 C 150.659 376.238,150.845 377.592,149.382 378.743 C 147.394 380.306,145.098 379.370,144.365 376.698 C 143.547 373.715,142.711 371.624,142.152 371.160 C 140.702 369.957,131.938 370.019,131.170 371.238 C 130.975 371.547,130.433 373.027,129.967 374.526 C 128.574 378.995,126.218 380.607,124.005 378.605 C 122.812 377.525,122.984 376.431,125.450 369.400 C 126.684 365.880,128.013 361.722,128.402 360.159 C 129.040 357.603,131.620 349.423,132.426 347.400 C 132.601 346.960,132.952 345.920,133.207 345.090 C 134.176 341.923,135.993 340.667,138.169 341.658 M280.835 341.948 C 282.036 342.920,282.841 376.282,281.711 378.253 C 280.560 380.262,276.550 379.671,275.917 377.400 C 275.176 374.741,276.047 343.248,276.891 342.175 C 277.825 340.988,279.528 340.890,280.835 341.948 M291.509 342.103 C 291.975 342.600,293.289 344.805,294.428 347.003 C 295.567 349.201,297.287 352.275,298.249 353.834 C 299.212 355.392,300.000 356.850,300.000 357.074 C 300.000 357.928,302.435 360.800,303.160 360.800 C 304.314 360.800,304.400 360.145,304.400 351.349 C 304.400 343.192,304.403 343.160,305.382 342.182 C 306.612 340.952,308.163 340.926,309.353 342.117 C 310.294 343.058,311.354 373.340,310.563 376.666 C 309.668 380.425,305.929 380.333,303.755 376.498 C 303.163 375.454,302.180 373.790,301.571 372.800 C 300.961 371.810,299.359 368.750,298.010 366.000 C 294.893 359.646,295.019 359.873,294.518 359.706 C 292.999 359.200,292.720 360.717,292.995 368.007 C 293.352 377.483,292.947 378.967,289.865 379.467 C 288.701 379.656,288.274 379.510,287.385 378.622 L 286.312 377.548 286.545 362.074 C 286.674 353.563,286.784 345.752,286.789 344.716 C 286.807 341.562,289.566 340.035,291.509 342.103 M161.823 348.089 C 160.920 349.377,160.925 357.668,161.829 358.571 C 162.989 359.732,168.847 359.445,170.384 358.152 C 175.585 353.776,171.962 347.200,164.350 347.200 C 162.835 347.200,162.318 347.382,161.823 348.089 M170.259 349.725 C 173.882 353.679,171.808 358.053,166.175 358.337 C 162.060 358.545,162.000 358.472,162.000 353.231 C 162.000 347.928,162.047 347.867,165.972 348.107 C 168.772 348.279,169.019 348.372,170.259 349.725 M135.266 358.707 C 133.997 360.490,133.681 363.801,134.727 364.361 C 137.410 365.797,139.753 364.541,139.469 361.820 C 139.093 358.211,136.819 356.527,135.266 358.707 M137.742 359.300 C 139.264 361.743,138.811 364.000,136.800 364.000 C 135.276 364.000,134.779 363.266,135.160 361.577 C 135.843 358.550,136.767 357.735,137.742 359.300 " stroke="none" fill="#9bd5da" fill-rule="evenodd"></path><path id="path4" d="M204.200 81.026 C 194.770 82.464,187.332 85.454,177.346 91.822 C 166.670 98.629,154.914 113.570,151.046 125.245 C 144.812 144.067,145.648 162.292,153.515 179.000 C 170.242 214.527,213.199 228.303,247.800 209.237 C 252.627 206.577,261.505 199.769,262.895 197.661 C 264.999 194.472,261.174 191.464,257.959 193.779 C 236.560 209.188,217.391 210.430,197.066 197.726 C 188.090 192.115,177.367 175.368,174.959 163.200 C 172.172 149.110,172.102 142.174,174.610 128.226 C 177.525 112.013,190.900 96.082,206.000 90.839 C 207.430 90.342,208.930 89.759,209.333 89.544 C 210.776 88.772,218.997 88.211,222.166 88.668 C 228.620 89.598,234.739 94.143,237.847 100.317 L 239.400 103.400 239.372 110.200 C 239.351 115.400,239.139 118.098,238.472 121.669 C 236.981 129.649,237.399 130.826,242.000 131.617 C 249.722 132.943,261.832 123.856,265.246 114.173 C 268.490 104.970,263.504 97.563,248.000 88.555 C 236.021 81.595,219.312 78.723,204.200 81.026 M222.567 81.175 C 223.905 81.381,226.440 81.764,228.200 82.025 C 243.622 84.316,263.212 97.153,265.132 106.227 C 267.211 116.060,255.260 130.117,244.293 130.738 C 238.637 131.058,237.878 129.828,239.196 122.479 C 240.654 114.351,240.785 105.329,239.492 102.148 C 227.571 72.822,180.399 91.775,173.656 128.600 C 171.241 141.790,171.306 148.343,174.000 163.319 C 174.229 164.595,174.694 166.395,175.032 167.319 C 175.370 168.244,175.934 169.810,176.286 170.800 C 188.593 205.440,226.898 217.810,255.537 196.395 C 259.162 193.684,260.003 193.319,261.398 193.855 C 263.735 194.752,262.768 197.327,258.940 200.398 C 257.433 201.608,255.962 202.823,255.671 203.099 C 254.925 203.807,250.142 207.200,249.890 207.200 C 249.776 207.200,248.510 207.912,247.079 208.781 C 229.309 219.577,201.859 219.749,183.012 209.184 C 181.065 208.093,179.420 207.200,179.357 207.200 C 179.294 207.200,177.679 206.035,175.770 204.611 C 161.643 194.079,152.596 180.150,149.393 164.000 C 149.023 162.130,148.577 159.880,148.404 159.000 C 146.182 147.723,148.902 130.537,154.751 118.893 C 163.529 101.420,177.476 89.608,196.849 83.239 C 202.765 81.295,216.297 80.208,222.567 81.175 M121.499 140.145 C 120.674 140.454,119.324 141.222,118.499 141.853 C 117.011 142.992,116.953 143.001,110.508 143.127 L 104.016 143.254 103.208 144.389 C 101.856 146.287,102.078 158.800,103.464 158.800 C 103.898 158.800,103.932 158.621,103.614 158.026 C 102.942 156.771,103.080 145.949,103.780 144.949 C 104.314 144.187,104.877 144.103,110.797 143.897 L 117.234 143.674 119.407 142.178 C 125.955 137.668,137.242 141.756,132.700 146.993 C 130.807 149.176,122.860 149.271,118.722 147.160 C 117.434 146.503,116.568 146.353,114.870 146.494 C 111.682 146.759,111.514 147.116,111.671 153.299 C 111.837 159.852,112.400 159.952,112.400 153.429 C 112.400 146.737,114.018 145.529,119.290 148.285 C 126.906 152.267,137.678 147.658,133.776 142.087 C 132.264 139.929,125.105 138.797,121.499 140.145 M286.200 139.947 C 281.076 141.289,280.133 146.789,284.657 148.947 C 287.455 150.281,294.243 149.770,297.654 147.968 C 302.194 145.571,304.000 147.174,304.000 153.600 C 304.000 156.533,304.156 158.400,304.400 158.400 C 305.260 158.400,304.893 148.208,304.004 147.404 C 302.734 146.254,299.591 146.139,297.472 147.165 C 289.451 151.048,279.110 147.571,283.426 142.442 C 285.924 139.474,294.282 139.555,297.631 142.581 L 299.202 144.000 305.215 144.000 C 313.622 144.000,313.200 143.611,313.200 151.357 C 313.200 156.199,313.074 157.601,312.577 158.311 C 312.024 159.101,312.023 159.200,312.563 159.200 C 313.718 159.200,314.000 157.677,314.000 151.442 L 314.000 145.232 312.904 144.216 C 311.824 143.215,311.715 143.200,305.313 143.200 L 298.818 143.200 298.150 142.180 C 296.789 140.102,290.262 138.883,286.200 139.947 " stroke="none" fill="#ead194" fill-rule="evenodd"></path></g></svg>